/* XPM */
static char * bullet_xpm[] = {
"16 16 3 1",
" 	c None",
".	c #E7E7E7",
"+	c #000000",
"                ",
"                ",
"                ",
"                ",
"                ",
"                ",
"                ",
"         ..     ",
"         ..     ",
"         ...    ",
"         ....   ",
"         ++++   ",
"                ",
"                ",
"                ",
"                "};
