/* XPM */
static char * maxpr_xpm[] = {
"21 21 8 1",
" 	c #151515",
".	c #1A1A1A",
"+	c #1E1E1E",
"@	c #FFFFFF",
"#	c #272727",
"$	c #2F2F2F",
"%	c #2C2C2C",
"&	c #252525",
"                     ",
"                     ",
".....................",
".....................",
"+++++++++++++++++++++",
"+++++++++++++++++++++",
"+++++++++++++++++++++",
"+++++++++++++++++++++",
"+++++++++++++++++++++",
"++++++++@@@@@@+++++++",
"########@@@@@@#######",
"########@####@#######",
"########@####@#######",
"$$$$$$$$@$$$$@$$$$$$$",
"%%%%%%%%@@@@@@%%%%%%%",
"%%%%%%%%%%%%%%%%%%%%%",
"%%%%%%%%%%%%%%%%%%%%%",
"%%%%%%%%%%%%%%%%%%%%%",
"%%%%%%%%%%%%%%%%%%%%%",
"%%%%%%%%%%%%%%%%%%%%%",
"&&&&&&&&&&&&&&&&&&&&&"};
