/* XPM */
static char * maxufcs_xpm[] = {
"21 21 11 1",
" 	c #0D0D0D",
".	c #101010",
"+	c #131313",
"@	c #898989",
"#	c #191919",
"$	c #8C8C8C",
"%	c #1F1F1F",
"&	c #8F8F8F",
"*	c #1D1D1D",
"=	c #0F0F0F",
"-	c #171717",
"                     ",
"                     ",
".....................",
".....................",
"+++++++++++++++++++++",
"+++++++++++++++++++++",
"+++++++++++++++++++++",
"+++++++++++++++++++++",
"++++++++@@@@@@+++++++",
"++++++++@@@@@@+++++++",
"########$    $#######",
"########$####$#######",
"########$####$#######",
"%%%%%%%%&&&&&&%%%%%%%",
"********======*******",
"*********************",
"*********************",
"*********************",
"*********************",
"*********************",
"---------------------"};
