/* XPM */
static char * menuiconufcs_xpm[] = {
"21 21 14 1",
" 	c #0D0D0D",
".	c #101010",
"+	c #131313",
"@	c #898989",
"#	c #191919",
"$	c #8C8C8C",
"%	c #1F1F1F",
"&	c #8F8F8F",
"*	c #373737",
"=	c #1D1D1D",
"-	c #2B2B2B",
";	c #353535",
">	c #8E8E8E",
",	c #171717",
"                     ",
"                     ",
".....................",
".....................",
"+++++++++++++++++++++",
"+++++++++++++++++++++",
"++++++@@+++++++++++++",
"++++++@@+@@@@@@++++++",
"+++++++++++++++++++++",
"++++++@@+++++++++++++",
"######$$#$$$$$$######",
"#####################",
"######$$#############",
"%%%%%%&&%&&&%*&&&%%%%",
"=============-;>=====",
"==============-;=====",
"=====================",
"=====================",
"=====================",
"=====================",
",,,,,,,,,,,,,,,,,,,,,"};
