/* XPM */
static char * menuiconfcs_xpm[] = {
"21 21 11 1",
" 	c #151515",
".	c #1A1A1A",
"+	c #1E1E1E",
"@	c #FFFFFF",
"#	c #272727",
"$	c #2F2F2F",
"%	c #5B5B5B",
"&	c #2C2C2C",
"*	c #464646",
"=	c #595959",
"-	c #252525",
"                     ",
"                     ",
".....................",
".....................",
"+++++++++++++++++++++",
"+++++++++++++++++++++",
"++++++@@+++++++++++++",
"++++++@@+@@@@@@++++++",
"+++++++++++++++++++++",
"++++++@@+++++++++++++",
"######@@#@@@@@@######",
"#####################",
"######@@#############",
"$$$$$$@@$@@@$%@@@$$$$",
"&&&&&&&&&&&&&*=@&&&&&",
"&&&&&&&&&&&&&&*=&&&&&",
"&&&&&&&&&&&&&&&&&&&&&",
"&&&&&&&&&&&&&&&&&&&&&",
"&&&&&&&&&&&&&&&&&&&&&",
"&&&&&&&&&&&&&&&&&&&&&",
"---------------------"};
