/* XPM */
static char * minufcs_xpm[] = {
"21 21 9 1",
" 	c #0D0D0D",
".	c #101010",
"+	c #131313",
"@	c #191919",
"#	c #1F1F1F",
"$	c #8F8F8F",
"%	c #1D1D1D",
"&	c #0F0F0F",
"*	c #171717",
"                     ",
"                     ",
".....................",
".....................",
"+++++++++++++++++++++",
"+++++++++++++++++++++",
"+++++++++++++++++++++",
"+++++++++++++++++++++",
"+++++++++++++++++++++",
"+++++++++++++++++++++",
"@@@@@@@@@@@@@@@@@@@@@",
"@@@@@@@@@@@@@@@@@@@@@",
"@@@@@@@@@@@@@@@@@@@@@",
"########$$$$$$#######",
"%%%%%%%%&&&&&&%%%%%%%",
"%%%%%%%%%%%%%%%%%%%%%",
"%%%%%%%%%%%%%%%%%%%%%",
"%%%%%%%%%%%%%%%%%%%%%",
"%%%%%%%%%%%%%%%%%%%%%",
"%%%%%%%%%%%%%%%%%%%%%",
"*********************"};
