/* XPM */
static char * tbarbuttonpr_xpm[] = {
"21 21 9 1",
" 	c #000000",
".	c #080808",
"+	c #6B4646",
"@	c #181010",
"#	c #201818",
"$	c #281818",
"%	c #3A2828",
"&	c #483830",
"*	c #483030",
"                     ",
" ...................+",
" @@@@@@@@@@@@@@@@@@@+",
" @@@@@@@@@@@@@@@@@@@+",
" ###################+",
" ###################+",
" ###################+",
" $$$$$$$$$$$$$$$$$$$+",
" $$$$$$$$$$$$$$$$$$$+",
" $$$$$$$$$$$$$$$$$$$+",
" %%%%%%%%%%%%%%%%%%%+",
" %%%%%%%%%%%%%%%%%%%+",
" %%%%%%%%%%%%%%%%%%%+",
" &&&&&&&&&&&&&&&&&&&+",
" *******************+",
" *******************+",
" *******************+",
" *******************+",
" *******************+",
" *******************+",
" ++++++++++++++++++++"};
