/* XPM */
static char * unshadeufcs_xpm[] = {
"21 21 8 1",
" 	c #0D0D0D",
".	c #101010",
"+	c #131313",
"@	c #191919",
"#	c #8C8C8C",
"$	c #1F1F1F",
"%	c #1D1D1D",
"&	c #171717",
"                     ",
"                     ",
".....................",
".....................",
"+++++++++++++++++++++",
"+++++++++++++++++++++",
"+++++++++++++++++++++",
"+++++++++++++++++++++",
"+++++++++++++++++++++",
"+++++++++++++++++++++",
"@@@@@@@@@###@@@@@@@@@",
"@@@@@@@@@ # @@@@@@@@@",
"@@@@@@@@@@ @@@@@@@@@@",
"$$$$$$$$$$$$$$$$$$$$$",
"%%%%%%%%%%%%%%%%%%%%%",
"%%%%%%%%%%%%%%%%%%%%%",
"%%%%%%%%%%%%%%%%%%%%%",
"%%%%%%%%%%%%%%%%%%%%%",
"%%%%%%%%%%%%%%%%%%%%%",
"%%%%%%%%%%%%%%%%%%%%%",
"&&&&&&&&&&&&&&&&&&&&&"};
