/* XPM */
static char * close_focus_xpm[] = {
"21 21 4 1",
" 	c None",
".	c #635E58",
"+	c #3F3F3F",
"@	c #4A4849",
".....................",
"++++++++++++++++++++.",
"++++++++++++++++++++.",
"++++++++++++++++++++.",
"+++@@@@@@@@@@@@@@+++.",
"+++@++++++++++++@+++.",
"+++@++++++++++++@+++.",
"+++@++...++...++@+++.",
"+++@++...++...++@+++.",
"+++@++...++...++@+++.",
"+++@+++++..+++++@+++.",
"+++@+++++..+++++@+++.",
"+++@++...++...++@+++.",
"+++@++...++...++@+++.",
"+++@++...++...++@+++.",
"+++@++++++++++++@+++.",
"+++@++++++++++++@+++.",
"+++@@@@@@@@@@@@@@+++.",
"++++++++++++++++++++.",
"++++++++++++++++++++.",
"....................."};
