/* XPM */
static char * close_pressed_xpm[] = {
"21 21 6 1",
" 	c None",
".	c #635E58",
"+	c #3F3F3F",
"@	c #4E4D4D",
"#	c #444444",
"$	c #67625C",
".....................",
"++++++++++++++++++++.",
"++++++++++++++++++++.",
"++++++++++++++++++++.",
"+++@@@@@@@@@@@@@@+++.",
"+++@############@+++.",
"+++@############@+++.",
"+++@##$$$##$$$##@+++.",
"+++@##$$$##$$$##@+++.",
"+++@##$$$##$$$##@+++.",
"+++@#####$$#####@+++.",
"+++@#####$$#####@+++.",
"+++@##$$$##$$$##@+++.",
"+++@##$$$##$$$##@+++.",
"+++@##$$$##$$$##@+++.",
"+++@############@+++.",
"+++@############@+++.",
"+++@@@@@@@@@@@@@@+++.",
"++++++++++++++++++++.",
"++++++++++++++++++++.",
"....................."};
