/* XPM */
static char * hilite_xpm[] = {
"21 21 15 1",
" 	c None",
".	c #67625C",
"+	c #5C514D",
"@	c #5C504D",
"#	c #5C504C",
"$	c #5B504C",
"%	c #5B4F4C",
"&	c #5B4F4B",
"*	c #5B4E4B",
"=	c #5A4E4A",
"-	c #5A4D4A",
";	c #5A4D49",
">	c #5A4C49",
",	c #594C49",
"'	c #594C48",
".....................",
"+++++++++++++++++++++",
"+++++++++++++++++++++",
"@@@##################",
"#####################",
"#$$$$$$$$$$$$$$$$$$$$",
"%%%%%%%%%%%%%%%%%%%%%",
"&&&&&&&&&&&&&&&&&&&&&",
"&&&&&&&&&&&&&&&&&&&&&",
"&&&&&&&&&&&&&&&&&&&&&",
"*********************",
"=====================",
"=====================",
"---------------------",
"---------------------",
";;;;;;;;;;;;;;;;;;;;;",
";;;;;;;>>>>>>>>>>>>>>",
",,,,,,,,,,,,,,,,,,,,,",
",,,,,,,,,,,,,,,,,,,,,",
"'''''''''''''''''''''",
"....................."};
