/* XPM */
static char * min_unfocus_xpm[] = {
"21 21 6 1",
" 	c None",
".	c #635E58",
"+	c #3F3F3F",
"@	c #595651",
"#	c #4A4849",
"$	c #514D4A",
".....................",
"+++++++++++++++++++++",
"+++++++++++++++++++++",
"@++++++++++++++++++++",
"@+++++##############+",
"@+++++#++++++++++++#+",
"@+++++#++++++++++++#+",
"@+++++#++++++++++++#+",
"@+++++#++++++++++++#+",
"@+++++#++++++++++++#+",
"@+++++#++++++++++++#+",
"@+++++#++++++++++++#+",
"@+++++#+++$$$$$$+++#+",
"@+++++#+++$$$$$$+++#+",
"@+++++#++++++++++++#+",
"@+++++#++++++++++++#+",
"@+++++#++++++++++++#+",
"@+++++##############+",
"+++++++++++++++++++++",
"+++++++++++++++++++++",
"....................."};
