/* XPM */
static char * min_pressed_xpm[] = {
"21 21 8 1",
" 	c None",
".	c #635E58",
"+	c #3F3F3F",
"@	c #595651",
"#	c #4E4D4D",
"$	c #444444",
"%	c #5F5B57",
"&	c #67625C",
".....................",
"+++++++++++++++++++++",
"+++++++++++++++++++++",
"@++++++++++++++++++++",
"@+++++##############+",
"@+++++#$$$$$$$$$$$$#+",
"@+++++#$$$$$$$$$$$$#+",
"@+++++#$$$$$$$$$$$$#+",
"@+++++#$$$$$$$$$$$$#+",
"@+++++#$$$$$$$$$$$$#+",
"@+++++#$$$$$$$$$$$$#+",
"@+++++#$$$$$$$$$$$$#+",
"@+++++#$$$%%%%%%$$$#+",
"@+++++#$$$&&&&&&$$$#+",
"@+++++#$$$$$$$$$$$$#+",
"@+++++#$$$$$$$$$$$$#+",
"@+++++#$$$$$$$$$$$$#+",
"@+++++##############+",
"+++++++++++++++++++++",
"+++++++++++++++++++++",
"....................."};
