/* XPM */
static char * stuck_pressed_xpm[] = {
"21 21 17 1",
" 	c None",
".	c #605B56",
"+	c #3F3F3F",
"@	c #595651",
"#	c #544C4A",
"$	c #544C49",
"%	c #58504D",
"&	c #534B48",
"*	c #574F4D",
"=	c #67625C",
"-	c #524A47",
";	c #564E4C",
">	c #514946",
",	c #554D4B",
"'	c #504845",
")	c #544D4A",
"!	c #4F4744",
".....................",
".++++++++++++++++++++",
".++++++++++++++++++++",
".++@@@@@@@@@@@@@@@@@@",
".++@#################",
".++@#################",
".++@$$$$$$$$#########",
".++@$$$%%%%%%$$$$$$$$",
".++@&&&*====*&&&&&&$$",
".++@---;====*&&&&&&&&",
".++@---;====;--------",
".++@>>>,====,>>>>----",
".++@'''),,,,,>>>>>>>>",
".++@'''''''''''''''''",
".++@!!!!!!!!!!!''''''",
".++@!!!!!!!!!!!!!!!!!",
".++@!!!!!!!!!!!!!!!!!",
".++@@@@@@@@@@@@@@@@@@",
".++++++++++++++++++++",
".++++++++++++++++++++",
"....................."};
