/* XPM */
static char * title_xpm[] = {
"21 21 11 1",
" 	c None",
".	c #605B56",
"+	c #3F3F3F",
"@	c #595651",
"#	c #544C4A",
"$	c #544C49",
"%	c #534B48",
"&	c #524A47",
"*	c #514946",
"=	c #504845",
"-	c #4F4744",
".....................",
"+++++++++++++++++++++",
"+++++++++++++++++++++",
"@@@@@@@@@@@@@@@@@@@@@",
"#####################",
"#####################",
"$$$$$$$$$$$$#########",
"%%%$$$$$$$$$$$$$$$$$$",
"%%%%%%%%%%%%%%%%%%%$$",
"&&&&&&&&&&%%%%%%%%%%%",
"*&&&&&&&&&&&&&&&&&&&&",
"*****************&&&&",
"========*************",
"=====================",
"---------------======",
"---------------------",
"---------------------",
"@@@@@@@@@@@@@@@@@@@@@",
"+++++++++++++++++++++",
"+++++++++++++++++++++",
"....................."};
