/* XPM */
static char * toolbar_focused_xpm[] = {
"23 23 12 1",
" 	c None",
".	c #635E58",
"+	c #3F3F3F",
"@	c #56514C",
"#	c #544C4A",
"$	c #544C49",
"%	c #534B48",
"&	c #524A47",
"*	c #514946",
"=	c #504845",
"-	c #4F4744",
";	c #544E4A",
".......................",
"+++++++++++++++++++++++",
"+++++++++++++++++++++++",
"@@@@@@@@@@@@@@@@@@@@@@@",
"#######################",
"#######################",
"$$$$$$$$$$$$$$$$$$$$$$$",
"$$$$$$$$$$$$$$$$$$$$$$$",
"%%%%%%%%%%%%%%%%$$$$$$$",
"%%%%%%%%%%%%%%%%%%%%%%%",
"&&&&&&%%%%%%%%%%%%%%%%%",
"&&&&&&&&&&&&&&&&&&&&&&&",
"&&&&&&&&&&&&&&&&&&&&&&&",
"**********************&",
"***********************",
"============***********",
"=======================",
"--=====================",
"-----------------------",
";;;;;;;;;;;;;;;;;;;;;;;",
"+++++++++++++++++++++++",
"+++++++++++++++++++++++",
"......................."};
