/* XPM */
static char * toolbar_xpm[] = {
"23 23 3 1",
" 	c None",
".	c #635E58",
"+	c #3F3F3F",
".......................",
"+++++++++++++++++++++++",
"+++++++++++++++++++++++",
"+++++++++++++++++++++++",
"+++++++++++++++++++++++",
"+++++++++++++++++++++++",
"+++++++++++++++++++++++",
"+++++++++++++++++++++++",
"+++++++++++++++++++++++",
"+++++++++++++++++++++++",
"+++++++++++++++++++++++",
"+++++++++++++++++++++++",
"+++++++++++++++++++++++",
"+++++++++++++++++++++++",
"+++++++++++++++++++++++",
"+++++++++++++++++++++++",
"+++++++++++++++++++++++",
"+++++++++++++++++++++++",
"+++++++++++++++++++++++",
"+++++++++++++++++++++++",
"+++++++++++++++++++++++",
"+++++++++++++++++++++++",
"......................."};
