/* XPM */
static char * unselect_xpm[] = {
"21 21 2 1",
" 	c None",
".	c #827F7B",
"                     ",
"                     ",
"                     ",
"                     ",
"                     ",
"                     ",
"                     ",
"                     ",
"           ......    ",
"           .    .    ",
"           .    .    ",
"           .    .    ",
"           .    .    ",
"           ......    ",
"                     ",
"                     ",
"                     ",
"                     ",
"                     ",
"                     ",
"                     "};
