/* XPM */
static char * close_xpm[] = {
"16 16 74 1",
" 	c #A3AE6E",
".	c #8E995B",
"+	c #777C61",
"@	c #D9D9E1",
"#	c #BDC697",
"$	c #A7AF80",
"%	c #767B62",
"&	c #E9E9EF",
"*	c #A9B572",
"=	c #9FA96B",
"-	c #717657",
";	c #F1F1F5",
">	c #8D9D3D",
",	c #87963A",
"'	c #606937",
")	c #F6F7FA",
"!	c #748A0C",
"~	c #70850B",
"{	c #536014",
"]	c #FAFAFC",
"^	c #768E02",
"/	c #183848",
"(	c #728902",
"_	c #52600A",
":	c #7E9803",
"<	c #587D90",
"[	c #0C1E26",
"}	c #799203",
"|	c #546605",
"1	c #F9F9FB",
"2	c #839F01",
"3	c #628698",
"4	c #050C0F",
"5	c #7E9801",
"6	c #586B02",
"7	c #F3F3F5",
"8	c #8BA803",
"9	c #000202",
"0	c #5F8395",
"a	c #010203",
"b	c #85A103",
"c	c #5C6F02",
"d	c #E6E6E9",
"e	c #92B005",
"f	c #000000",
"g	c #5C8193",
"h	c #8CA905",
"i	c #627506",
"j	c #D7D7DE",
"k	c #9EBD12",
"l	c #497084",
"m	c #97B511",
"n	c #697C13",
"o	c #C7C7CE",
"p	c #A6C51D",
"q	c #A0BD1D",
"r	c #6C7E1E",
"s	c #B7B8C0",
"t	c #B2D127",
"u	c #A8C625",
"v	c #6D7E25",
"w	c #A4A5AF",
"x	c #BDD92C",
"y	c #B0CC2B",
"z	c #6C7B2F",
"A	c #9597A3",
"B	c #C5DF2F",
"C	c #B3CC2D",
"D	c #6D7939",
"E	c #878996",
"F	c #A9C236",
"G	c #99B132",
"H	c #677144",
"I	c #7E808F",
"          .+@@@@",
"##########$%&&&&",
"**********=-;;;;",
">>>>>>>>>>,'))))",
"!!!!!!!!!!~{]]]]",
"^^//^^^//^(_]]]]",
"::<[[:[[<:}|1111",
"2223444322567777",
"8889909a88bcdddd",
"eeffgegffehijjjj",
"kkllkkkllkmnoooo",
"ppppppppppqrssss",
"ttttttttttuvwwww",
"xxxxxxxxxxyzAAAA",
"BBBBBBBBBBCDEEEE",
"FFFFFFFFFFGHIIII"};
