/* XPM */
static char * edges_xpm[] = {
"2 23 24 1",
" 	c #6E6F77",
".	c #818287",
"+	c #84848A",
"@	c #8A8A8E",
"#	c #87888C",
"$	c #8C8D90",
"%	c #959598",
"&	c #909095",
"*	c #98989A",
"=	c #939396",
"-	c #8E8F92",
";	c #7A7A7D",
">	c #7E7F84",
",	c #727273",
"'	c #65666D",
")	c #5E5E67",
"!	c #585961",
"~	c #51525B",
"{	c #4E4F59",
"]	c #474953",
"^	c #42434E",
"/	c #3B3C48",
"(	c #313340",
"_	c #232329",
"  ",
".+",
"@+",
"#$",
"$$",
"%&",
"%%",
"**",
"%*",
"%*",
"=%",
"-@",
"#.",
";>",
", ",
"''",
")!",
"~{",
"]^",
"//",
"((",
"__",
"__"};
