/* XPM */
static char * icon_xpm[] = {
"16 16 67 1",
" 	c #C5C7D2",
".	c #777C61",
"+	c #8E995B",
"@	c #A3AE6E",
"#	c #DFE0E6",
"$	c #767B62",
"%	c #A7AF80",
"&	c #BDC697",
"*	c #EDEDF2",
"=	c #717657",
"-	c #9FA96B",
";	c #A9B572",
">	c #F3F3F7",
",	c #606937",
"'	c #87963A",
")	c #8D9D3D",
"!	c #F8F9FB",
"~	c #536014",
"{	c #70850B",
"]	c #748A0C",
"^	c #FAFAFC",
"/	c #52600A",
"(	c #728902",
"_	c #768E02",
":	c #546605",
"<	c #799203",
"[	c #7E9803",
"}	c #F8F8FA",
"|	c #586B02",
"1	c #7E9801",
"2	c #0E222C",
"3	c #839F01",
"4	c #EEEEF1",
"5	c #5C6F02",
"6	c #85A103",
"7	c #000000",
"8	c #8BA803",
"9	c #E3E3E7",
"0	c #627506",
"a	c #8CA905",
"b	c #3F687C",
"c	c #3B6479",
"d	c #92B005",
"e	c #D0D0D8",
"f	c #697C13",
"g	c #97B511",
"h	c #9EBD12",
"i	c #C3C3CA",
"j	c #6C7E1E",
"k	c #A0BD1D",
"l	c #A6C51D",
"m	c #AFB0B9",
"n	c #6D7E25",
"o	c #A8C625",
"p	c #B2D127",
"q	c #A0A2AC",
"r	c #6C7B2F",
"s	c #B0CC2B",
"t	c #BDD92C",
"u	c #8F919D",
"v	c #6D7939",
"w	c #B3CC2D",
"x	c #C5DF2F",
"y	c #848694",
"z	c #677144",
"A	c #99B132",
"B	c #A9C236",
"    .+@@@@@@@@@@",
"####$%&&&&&&&&&&",
"****=-;;;;;;;;;;",
">>>>,'))))))))))",
"!!!!~{]]]]]]]]]]",
"^^^^/(__________",
"^^^^:<[[[[[[[[[[",
"}}}}|12222222333",
"4444567777777888",
"99990abbcbbbbddd",
"eeeefghhhhhhhhhh",
"iiiijkllllllllll",
"mmmmnopppppppppp",
"qqqqrstttttttttt",
"uuuuvwxxxxxxxxxx",
"yyyyzABBBBBBBBBB"};
