/* XPM */
static char * iconbaru_xpm[] = {
"2 25 22 1",
" 	c #BFC1CD",
".	c #D2D3DB",
"+	c #E6E6EC",
"@	c #EBEBF1",
"#	c #F0F0F4",
"$	c #F4F4F8",
"%	c #F7F8FB",
"&	c #FAFAFC",
"*	c #FAF9FB",
"=	c #F7F7F9",
"-	c #F1F1F3",
";	c #E9E9EC",
">	c #E0E0E4",
",	c #CBCBD1",
"'	c #BFBFC7",
")	c #B3B4BC",
"!	c #A8A9B2",
"~	c #9C9EA9",
"{	c #9294A0",
"]	c #898B98",
"^	c #828492",
"/	c #7C7E8D",
"  ",
"..",
"++",
"@@",
"##",
"$$",
"%%",
"&&",
"&&",
"&&",
"*&",
"==",
"#-",
";;",
">>",
"..",
",,",
"''",
"))",
"!!",
"~~",
"{{",
"]]",
"^^",
"//"};
