/* XPM */
static char * iconbarf_xpm[] = {
"2 25 25 1",
" 	c #808D39",
".	c #DBE0C8",
"+	c #ABB679",
"@	c #AEB97B",
"#	c #9FAC5C",
"$	c #84962B",
"%	c #748A0D",
"&	c #748B04",
"*	c #779000",
"=	c #7C9504",
"-	c #859E0C",
";	c #86A205",
">	c #89A603",
",	c #90AD08",
"'	c #99B70E",
")	c #9CBA0F",
"!	c #A3C215",
"~	c #A9C91E",
"{	c #AECE25",
"]	c #B7D629",
"^	c #C1DD2B",
"/	c #CAE42C",
"(	c #BFDA33",
"_	c #9EB836",
":	c #647726",
"  ",
"..",
"++",
"@@",
"##",
"$$",
"%%",
"&&",
"**",
"==",
"--",
";;",
">>",
",,",
"''",
"))",
"!!",
"~~",
"{{",
"]]",
"^^",
"//",
"((",
"__",
"::"};
