/* XPM */
static char * max_xpm[] = {
"16 16 24 1",
" 	c #A3AE6E",
".	c #BDC697",
"+	c #A9B572",
"@	c #8D9D3D",
"#	c #748A0C",
"$	c #768E02",
"%	c #0E222C",
"&	c #0E212B",
"*	c #7E9803",
"=	c #060E13",
"-	c #060E12",
";	c #839F01",
">	c #010203",
",	c #5C8193",
"'	c #8BA803",
")	c #000000",
"!	c #92B005",
"~	c #9EBD12",
"{	c #3F687C",
"]	c #A6C51D",
"^	c #B2D127",
"/	c #BDD92C",
"(	c #C5DF2F",
"_	c #A9C236",
"                ",
"................",
"++++++++++++++++",
"@@@@@@@@@@@@@@@@",
"################",
"$$$$%%&%%%%%$$$$",
"****==-==---****",
";;;;>,,,,,,>;;;;",
"'''')'''''')''''",
"!!!!))))))))!!!!",
"~~~~{{{{{{{{~~~~",
"]]]]]]]]]]]]]]]]",
"^^^^^^^^^^^^^^^^",
"////////////////",
"((((((((((((((((",
"________________"};
