/* XPM */
static char * menu_xpm[] = {
"1 22 22 1",
" 	c None",
".	c #FFFFFF",
"+	c #D1D1D3",
"@	c #D2D3D3",
"#	c #D4D4D6",
"$	c #D6D6D7",
"%	c #D8D8D9",
"&	c #DADADB",
"*	c #DCDDDD",
"=	c #DEDEDF",
"-	c #E0E1E1",
";	c #E2E2E3",
">	c #E4E5E5",
",	c #E6E7E7",
"'	c #E8E8E9",
")	c #EAEBEA",
"!	c #EBEDEC",
"~	c #EEEEEF",
"{	c #EFF0F0",
"]	c #F0F1F1",
"^	c #F2F2F2",
"/	c #BFC0C0",
".",
".",
"+",
"@",
"#",
"$",
"%",
"&",
"*",
"=",
"-",
";",
">",
",",
"'",
")",
"!",
"~",
"{",
"]",
"^",
"/"};
