/* XPM */
static char * selected_xpm[] = {
"17 17 2 1",
" 	c None",
".	c #7D8798",
"                 ",
"                 ",
"                 ",
"                 ",
"             .   ",
"            ..   ",
"   .       ...   ",
"   ..     ....   ",
"   ...   ....    ",
"   .... ....     ",
"    .......      ",
"     .....       ",
"      ...        ",
"       .         ",
"                 ",
"                 ",
"                 "};
