/* XPM */
static char * stick_xpm[] = {
"16 14 111 2",
"  	c #C7C8D3",
". 	c #A7A9AA",
"+ 	c #7C8551",
"@ 	c #ABB57B",
"# 	c #A0AB71",
"$ 	c #747A59",
"% 	c #D7D8DE",
"& 	c #DADBE2",
"* 	c #E4E4EA",
"= 	c #B1B2AF",
"- 	c #8B9367",
"; 	c #B5BF88",
"> 	c #ADB681",
", 	c #777D60",
"' 	c #E7E7EC",
") 	c #EBEBF1",
"! 	c #EFEFF3",
"~ 	c #AFB1A9",
"{ 	c #889257",
"] 	c #A2AF65",
"^ 	c #9EAB62",
"/ 	c #71784F",
"( 	c #EDEEF1",
"_ 	c #F3F3F7",
": 	c #F6F6FA",
"< 	c #AAAE9C",
"[ 	c #6C7D1C",
"} 	c #7C901D",
"| 	c #7A8D1C",
"1 	c #5B6721",
"2 	c #F2F3F4",
"3 	c #F8F9FC",
"4 	c #FAFAFC",
"5 	c #AAAF93",
"6 	c #677B05",
"7 	c #758D05",
"8 	c #738A04",
"9 	c #56650B",
"0 	c #F3F4F3",
"a 	c #AAB08F",
"b 	c #6B8104",
"c 	c #7C9603",
"d 	c #7A9303",
"e 	c #586905",
"f 	c #F3F3F2",
"g 	c #FAF9FB",
"h 	c #F8F8FA",
"i 	c #ABB28C",
"j 	c #718902",
"k 	c #839E01",
"l 	c #809B01",
"m 	c #5C7002",
"n 	c #EDEDED",
"o 	c #F3F3F6",
"p 	c #EDEDF0",
"q 	c #EDEDF1",
"r 	c #A6AD86",
"s 	c #789103",
"t 	c #8BA803",
"u 	c #89A503",
"v 	c #617503",
"w 	c #E0E0E0",
"x 	c #E5E5E9",
"y 	c #DEDEE3",
"z 	c #A1A883",
"A 	c #819B08",
"B 	c #95B308",
"C 	c #92B008",
"D 	c #697E09",
"E 	c #CECFD2",
"F 	c #D3D3DA",
"G 	c #CCCDD4",
"H 	c #999F7F",
"I 	c #8AA414",
"J 	c #A0C014",
"K 	c #9EBC14",
"L 	c #6F8415",
"M 	c #BEBFC3",
"N 	c #C2C2C9",
"O 	c #B9BAC2",
"P 	c #8E947B",
"Q 	c #93AD22",
"R 	c #ACCA24",
"S 	c #A8C623",
"T 	c #748722",
"U 	c #AAACB2",
"V 	c #AEAEB7",
"W 	c #A5A6B0",
"X 	c #828776",
"Y 	c #96AF27",
"Z 	c #B9D72A",
"` 	c #B4D12A",
" .	c #73842A",
"..	c #9799A2",
"+.	c #9A9CA7",
"@.	c #9395A1",
"#.	c #7A7E75",
"$.	c #97AD2E",
"%.	c #C4DF2E",
"&.	c #BDD72D",
"*.	c #748235",
"=.	c #888B96",
"-.	c #8A8C99",
";.	c #858794",
">.	c #747675",
",.	c #839633",
"'.	c #ACC536",
").	c #A5BD34",
"!.	c #6B763F",
"~.	c #7D7F8D",
"{.	c #7E808F",
"      . + @ @ @ @ @ @ # $ % & & ",
"* * * = - ; ; ; ; ; ; > , ' ) ) ",
"! ! ! ~ { ] ] ] ] ] ] ^ / ( _ _ ",
": : : < [ } } } } } } | 1 2 3 3 ",
"4 4 4 5 6 7 7 7 7 7 7 8 9 0 4 4 ",
"4 4 4 a b c c c c c c d e f g g ",
"h h h i j k k k k k k l m n o o ",
"p q q r s t t t t t t u v w x x ",
"y y y z A B B B B B B C D E F F ",
"G G G H I J J J J J J K L M N N ",
"O O O P Q R R R R R R S T U V V ",
"W W W X Y Z Z Z Z Z Z `  ...+.+.",
"@.@.@.#.$.%.%.%.%.%.%.&.*.=.-.-.",
";.;.;.>.,.'.'.'.'.'.'.).!.~.{.{."};
