/* XPM */
static char * stuck_xpm[] = {
"16 14 113 2",
"  	c #C7C8D3",
". 	c #A7A9AA",
"+ 	c #7C8551",
"@ 	c #ABB57B",
"# 	c #A0AB71",
"$ 	c #747A59",
"% 	c #D7D8DE",
"& 	c #DADBE2",
"* 	c #E4E4EA",
"= 	c #B1B2AF",
"- 	c #8B9367",
"; 	c #B5BF88",
"> 	c #ADB681",
", 	c #777D60",
"' 	c #E7E7EC",
") 	c #EBEBF1",
"! 	c #EFEFF3",
"~ 	c #AFB1A9",
"{ 	c #889257",
"] 	c #A2AF65",
"^ 	c #9EAB62",
"/ 	c #71784F",
"( 	c #EDEEF1",
"_ 	c #F3F3F7",
": 	c #F6F6FA",
"< 	c #AAAE9C",
"[ 	c #6C7D1C",
"} 	c #7C901D",
"| 	c #7A8D1C",
"1 	c #5B6721",
"2 	c #F2F3F4",
"3 	c #F8F9FC",
"4 	c #FAFAFC",
"5 	c #AAAF93",
"6 	c #677B05",
"7 	c #758D05",
"8 	c #738A04",
"9 	c #56650B",
"0 	c #F3F4F3",
"a 	c #AAB08F",
"b 	c #6B8104",
"c 	c #7C9603",
"d 	c #272937",
"e 	c #7A9303",
"f 	c #586905",
"g 	c #F3F3F2",
"h 	c #FAF9FB",
"i 	c #F8F8FA",
"j 	c #ABB28C",
"k 	c #718902",
"l 	c #839E01",
"m 	c #5C8193",
"n 	c #809B01",
"o 	c #5C7002",
"p 	c #EDEDED",
"q 	c #F3F3F6",
"r 	c #EDEDF0",
"s 	c #EDEDF1",
"t 	c #A6AD86",
"u 	c #789103",
"v 	c #8BA803",
"w 	c #89A503",
"x 	c #617503",
"y 	c #E0E0E0",
"z 	c #E5E5E9",
"A 	c #DEDEE3",
"B 	c #A1A883",
"C 	c #819B08",
"D 	c #95B308",
"E 	c #92B008",
"F 	c #697E09",
"G 	c #CECFD2",
"H 	c #D3D3DA",
"I 	c #CCCDD4",
"J 	c #999F7F",
"K 	c #8AA414",
"L 	c #A0C014",
"M 	c #9EBC14",
"N 	c #6F8415",
"O 	c #BEBFC3",
"P 	c #C2C2C9",
"Q 	c #B9BAC2",
"R 	c #8E947B",
"S 	c #93AD22",
"T 	c #ACCA24",
"U 	c #A8C623",
"V 	c #748722",
"W 	c #AAACB2",
"X 	c #AEAEB7",
"Y 	c #A5A6B0",
"Z 	c #828776",
"` 	c #96AF27",
" .	c #B9D72A",
"..	c #B4D12A",
"+.	c #73842A",
"@.	c #9799A2",
"#.	c #9A9CA7",
"$.	c #9395A1",
"%.	c #7A7E75",
"&.	c #97AD2E",
"*.	c #C4DF2E",
"=.	c #BDD72D",
"-.	c #748235",
";.	c #888B96",
">.	c #8A8C99",
",.	c #858794",
"'.	c #747675",
").	c #839633",
"!.	c #ACC536",
"~.	c #A5BD34",
"{.	c #6B763F",
"].	c #7D7F8D",
"^.	c #7E808F",
"      . + @ @ @ @ @ @ # $ % & & ",
"* * * = - ; ; ; ; ; ; > , ' ) ) ",
"! ! ! ~ { ] ] ] ] ] ] ^ / ( _ _ ",
": : : < [ } } } } } } | 1 2 3 3 ",
"4 4 4 5 6 7 7 7 7 7 7 8 9 0 4 4 ",
"4 4 4 a b c d d d d c e f g h h ",
"i i i j k l d d d d m n o p q q ",
"r s s t u v d d d d m w x y z z ",
"A A A B C D d d d d m E F G H H ",
"I I I J K L m m m m m M N O P P ",
"Q Q Q R S T T T T T T U V W X X ",
"Y Y Y Z `  . . . . . ...+.@.#.#.",
"$.$.$.%.&.*.*.*.*.*.*.=.-.;.>.>.",
",.,.,.'.).!.!.!.!.!.!.~.{.].^.^."};
