/* XPM */
static char * close_xpm[] = {
"17 17 2 1",
" 	c #313131",
".	c #F1F1F1",
"                 ",
"                 ",
"                 ",
"                 ",
"                 ",
"     ..   ..     ",
"     ... ...     ",
"      .....      ",
"       ...       ",
"      .....      ",
"     ... ...     ",
"     ..   ..     ",
"                 ",
"                 ",
"                 ",
"                 ",
"                 "};
