/* XPM */
static char * close_xpm[] = {
"18 18 4 1",
" 	c None",
".	c #404040",
"+	c #909090",
"@	c #383838",
"..................",
"..................",
"..................",
"..................",
"..................",
"..................",
"......++..++......",
"......++..++......",
"........++........",
"@@@@@@@@++@@@@@@@@",
"@@@@@@++@@++@@@@@@",
"@@@@@@++@@++@@@@@@",
"@@@@@@@@@@@@@@@@@@",
"@@@@@@@@@@@@@@@@@@",
"@@@@@@@@@@@@@@@@@@",
"@@@@@@@@@@@@@@@@@@",
"@@@@@@@@@@@@@@@@@@",
"@@@@@@@@@@@@@@@@@@"};
