/* XPM */
static char * focused_xpm[] = {
"10 18 3 1",
" 	c None",
".	c #B6BE59",
"+	c #A4AB50",
"..........",
"..........",
"..........",
"..........",
"..........",
"..........",
"..........",
"..........",
"..........",
"++++++++++",
"++++++++++",
"++++++++++",
"++++++++++",
"++++++++++",
"++++++++++",
"++++++++++",
"++++++++++",
"++++++++++"};
