/* XPM */
static char * grip_focus_xpm[] = {
"10 18 3 1",
" 	c None",
".	c #3D3D3D",
"+	c #383838",
"..........",
"..........",
"..........",
"..........",
"..........",
"..........",
"..........",
"..........",
"..........",
"++++++++++",
"++++++++++",
"++++++++++",
"++++++++++",
"++++++++++",
"++++++++++",
"++++++++++",
"++++++++++",
"++++++++++"};
