/* XPM */
static char * max_pressed_xpm[] = {
"18 18 4 1",
" 	c None",
".	c #404040",
"+	c #B6BE59",
"@	c #383838",
"..................",
"..................",
"..................",
"..................",
"..................",
"..................",
"..................",
"........++........",
"........++........",
"@@@@@@++@@++@@@@@@",
"@@@@@@++@@++@@@@@@",
"@@@@@@@@@@@@@@@@@@",
"@@@@@@@@@@@@@@@@@@",
"@@@@@@@@@@@@@@@@@@",
"@@@@@@@@@@@@@@@@@@",
"@@@@@@@@@@@@@@@@@@",
"@@@@@@@@@@@@@@@@@@",
"@@@@@@@@@@@@@@@@@@"};
