/* XPM */
static char * menu_xpm[] = {
"10 18 3 1",
" 	c None",
".	c #404040",
"+	c #383838",
"..........",
"..........",
"..........",
"..........",
"..........",
"..........",
"..........",
"..........",
"..........",
"++++++++++",
"++++++++++",
"++++++++++",
"++++++++++",
"++++++++++",
"++++++++++",
"++++++++++",
"++++++++++",
"++++++++++"};
