/* XPM */
static char * closeufcs_xpm[] = {
"21 21 36 1",
" 	c #D1D2DE",
".	c #C9CAD6",
"+	c #C7C8D4",
"@	c #B3B4BF",
"#	c #9697A0",
"$	c #C9CAD5",
"%	c #C9CAD4",
"&	c #9798A0",
"*	c #CBCCD5",
"=	c #84858B",
"-	c #C7C8D2",
";	c #96979E",
">	c #C9CAD3",
",	c #838489",
"'	c #C0C1CA",
")	c #919198",
"!	c #C2C3CC",
"~	c #7E7F85",
"{	c #AAABB5",
"]	c #808188",
"^	c #ADADB7",
"/	c #717177",
"(	c #A6A7B5",
"_	c #7D7E88",
":	c #A9AAB7",
"<	c #A1A2AE",
"[	c #797A83",
"}	c #A4A5B0",
"|	c #9D9EAB",
"1	c #767781",
"2	c #A0A1AD",
"3	c #878890",
"4	c #717278",
"5	c #92939B",
"6	c #8D8E96",
"7	c #8B8C94",
"                     ",
".....................",
"+++++++++++++++++++++",
"+++@#############@+++",
"+++#$$$$$$$$$$$$$#+++",
"+++#$$$$$$$$$$$$$#+++",
"%%%&*************&%%%",
"%%%&***==***==***&%%%",
"---;>>>,,,>,,,>>>;---",
"---;>>>>,,,,,>>>>;---",
"''')!!!!!~~~!!!!!)'''",
"{{{]^^^^/////^^^^]{{{",
"{{{]^^^///^///^^^]{{{",
"{{{]^^^//^^^//^^^]{{{",
"(((_:::::::::::::_(((",
"<<<[}}}}}}}}}}}}}[<<<",
"|||122222222222221|||",
"###344444444444443###",
"555555555555555555555",
"666666666666666666666",
"777777777777777777777"};
