/* XPM */
static char * maxufcs_xpm[] = {
"21 21 35 1",
" 	c #D1D2DE",
".	c #C9CAD6",
"+	c #C7C8D4",
"@	c #B3B4BF",
"#	c #9697A0",
"$	c #C9CAD5",
"%	c #C9CAD4",
"&	c #9798A0",
"*	c #CBCCD5",
"=	c #C7C8D2",
"-	c #96979E",
";	c #C9CAD3",
">	c #838489",
",	c #C0C1CA",
"'	c #919198",
")	c #C2C3CC",
"!	c #7E7F85",
"~	c #AAABB5",
"{	c #808188",
"]	c #ADADB7",
"^	c #717177",
"/	c #A6A7B5",
"(	c #7D7E88",
"_	c #A9AAB7",
":	c #A1A2AE",
"<	c #797A83",
"[	c #A4A5B0",
"}	c #9D9EAB",
"|	c #767781",
"1	c #A0A1AD",
"2	c #878890",
"3	c #717278",
"4	c #92939B",
"5	c #8D8E96",
"6	c #8B8C94",
"                     ",
".....................",
"+++++++++++++++++++++",
"+++@#############@+++",
"+++#$$$$$$$$$$$$$#+++",
"+++#$$$$$$$$$$$$$#+++",
"%%%&*************&%%%",
"%%%&*************&%%%",
"===-;;;>>>>>>>;;;-===",
"===-;;;>>>>>>>;;;-===",
",,,')))!)))))!)))',,,",
"~~~{]]]^]]]]]^]]]{~~~",
"~~~{]]]^]]]]]^]]]{~~~",
"~~~{]]]^^^^^^^]]]{~~~",
"///(_____________(///",
":::<[[[[[[[[[[[[[<:::",
"}}}|1111111111111|}}}",
"###233333333333332###",
"444444444444444444444",
"555555555555555555555",
"666666666666666666666"};
