/* XPM */
static char * menuiconpr_xpm[] = {
"21 21 35 1",
" 	c #5F5F5F",
".	c #535353",
"+	c #515151",
"@	c #6D6D6D",
"#	c #979797",
"$	c #A0824E",
"%	c #535351",
"&	c #989897",
"*	c #A4854E",
"=	c #51514F",
"-	c #979795",
";	c #A0824C",
">	c #CFC0A5",
",	c #4A4A48",
"'	c #929291",
")	c #957846",
"!	c #CABBA2",
"~	c #3A3A3A",
"{	c #898989",
"]	c #78613A",
"^	c #BBB09C",
"/	c #38383A",
"(	c #888889",
"_	c #765F39",
":	c #353537",
"<	c #868687",
"[	c #705B37",
"}	c #333335",
"|	c #858586",
"1	c #6D5835",
"2	c #303030",
"3	c #838383",
"4	c #2E2E2E",
"5	c #2C2C2C",
"6	c #2B2B2B",
"                     ",
".....................",
"+++++++++++++++++++++",
"+++@#############@+++",
"+++#$$$$$$$$$$$$$#+++",
"+++#$$$$$$$$$$$$$#+++",
"%%%&*************&%%%",
"%%%&*************&%%%",
"===-;;;>>>>>>>;;;-===",
"===-;;;;;;;;;;;;;-===",
",,,')))!!!!!!!)))',,,",
"~~~{]]]]]]]]]]]]]{~~~",
"~~~{]]]^^^^^^^]]]{~~~",
"~~~{]]]]]]]]]]]]]{~~~",
"///(_____________(///",
":::<[[[[[[[[[[[[[<:::",
"}}}|1111111111111|}}}",
"222+3333333333333+222",
"444444444444444444444",
"555555555555555555555",
"666666666666666666666"};
