/* XPM */
static char * minpr_xpm[] = {
"21 21 34 1",
" 	c #5F5F5F",
".	c #535353",
"+	c #515151",
"@	c #6D6D6D",
"#	c #979797",
"$	c #A0824E",
"%	c #535351",
"&	c #989897",
"*	c #A4854E",
"=	c #51514F",
"-	c #979795",
";	c #A0824C",
">	c #4A4A48",
",	c #929291",
"'	c #957846",
")	c #3A3A3A",
"!	c #898989",
"~	c #78613A",
"{	c #938161",
"]	c #BBB09C",
"^	c #38383A",
"/	c #888889",
"(	c #765F39",
"_	c #353537",
":	c #868687",
"<	c #705B37",
"[	c #333335",
"}	c #858586",
"|	c #6D5835",
"1	c #303030",
"2	c #838383",
"3	c #2E2E2E",
"4	c #2C2C2C",
"5	c #2B2B2B",
"                     ",
".....................",
"+++++++++++++++++++++",
"+++@#############@+++",
"+++#$$$$$$$$$$$$$#+++",
"+++#$$$$$$$$$$$$$#+++",
"%%%&*************&%%%",
"%%%&*************&%%%",
"===-;;;;;;;;;;;;;-===",
"===-;;;;;;;;;;;;;-===",
">>>,''''''''''''',>>>",
")))!~~~~~~~~~~~~~!)))",
")))!~~~{{{{{{{~~~!)))",
")))!~~~]]]]]]]~~~!)))",
"^^^/(((((((((((((/^^^",
"___:<<<<<<<<<<<<<:___",
"[[[}|||||||||||||}[[[",
"111+2222222222222+111",
"333333333333333333333",
"444444444444444444444",
"555555555555555555555"};
