/* XPM */
static char * shadepr_xpm[] = {
"21 21 15 1",
" 	c #5F5F5F",
".	c #535353",
"+	c #515151",
"@	c #535351",
"#	c #51514F",
"$	c #4A4A48",
"%	c #3A3A3A",
"&	c #C4C4C4",
"*	c #38383A",
"=	c #353537",
"-	c #333335",
";	c #303030",
">	c #2E2E2E",
",	c #2C2C2C",
"'	c #2B2B2B",
"                     ",
".....................",
"+++++++++++++++++++++",
"+++++++++++++++++++++",
"+++++++++++++++++++++",
"+++++++++++++++++++++",
"@@@@@@@@@@@@@@@@@@@@@",
"@@@@@@@@@@@@@@@@@@@@@",
"#####################",
"#####################",
"$$$$$$$$$$$$$$$$$$$$$",
"%%%%%%%%%%&%%%%%%%%%%",
"%%%%%%%%%&&&%%%%%%%%%",
"%%%%%%%%&%%%&%%%%%%%%",
"*********************",
"=====================",
"---------------------",
";;;;;;;;;;;;;;;;;;;;;",
">>>>>>>>>>>>>>>>>>>>>",
",,,,,,,,,,,,,,,,,,,,,",
"'''''''''''''''''''''"};
