/* XPM */
static char * stickufcs_xpm[] = {
"21 21 32 1",
" 	c #D1D2DE",
".	c #C9CAD6",
"+	c #C7C8D4",
"@	c #B3B4BF",
"#	c #9697A0",
"$	c #C9CAD5",
"%	c #C9CAD4",
"&	c #9798A0",
"*	c #CBCCD5",
"=	c #C7C8D2",
"-	c #96979E",
";	c #C9CAD3",
">	c #C0C1CA",
",	c #919198",
"'	c #C2C3CC",
")	c #AAABB5",
"!	c #808188",
"~	c #ADADB7",
"{	c #A6A7B5",
"]	c #7D7E88",
"^	c #A9AAB7",
"/	c #A1A2AE",
"(	c #797A83",
"_	c #A4A5B0",
":	c #9D9EAB",
"<	c #767781",
"[	c #A0A1AD",
"}	c #878890",
"|	c #717278",
"1	c #92939B",
"2	c #8D8E96",
"3	c #8B8C94",
"                     ",
".....................",
"+++++++++++++++++++++",
"+++@#############@+++",
"+++#$$$$$$$$$$$$$#+++",
"+++#$$$$$$$$$$$$$#+++",
"%%%&*************&%%%",
"%%%&*************&%%%",
"===-;;;;;;;;;;;;;-===",
"===-;;;;;;;;;;;;;-===",
">>>,''''''''''''',>>>",
")))!~~~~~~~~~~~~~!)))",
")))!~~~~~~~~~~~~~!)))",
")))!~~~~~~~~~~~~~!)))",
"{{{]^^^^^^^^^^^^^]{{{",
"///(_____________(///",
":::<[[[[[[[[[[[[[<:::",
"###}|||||||||||||}###",
"111111111111111111111",
"222222222222222222222",
"333333333333333333333"};
