/* XPM */
static char * stuckfcs_xpm[] = {
"21 21 36 1",
" 	c #5F5F5F",
".	c #535353",
"+	c #515151",
"@	c #6D6D6D",
"#	c #979797",
"$	c #7A7874",
"%	c #535351",
"&	c #989897",
"*	c #7D7B74",
"=	c #D8D8D6",
"-	c #51514F",
";	c #979795",
">	c #7A7871",
",	c #D7D7D5",
"'	c #4A4A48",
")	c #929291",
"!	c #726F69",
"~	c #D5D4D2",
"{	c #3A3A3A",
"]	c #898989",
"^	c #5C5956",
"/	c #CECECD",
"(	c #38383A",
"_	c #888889",
":	c #595756",
"<	c #353537",
"[	c #868687",
"}	c #545353",
"|	c #333335",
"1	c #858586",
"2	c #525050",
"3	c #303030",
"4	c #838383",
"5	c #2E2E2E",
"6	c #2C2C2C",
"7	c #2B2B2B",
"                     ",
".....................",
"+++++++++++++++++++++",
"+++@#############@+++",
"+++#$$$$$$$$$$$$$#+++",
"+++#$$$$$$$$$$$$$#+++",
"%%%&*************&%%%",
"%%%&******=******&%%%",
"---;>>>>>>,>>>>>>;---",
"---;>>>>>>,>>>>>>;---",
"''')!!!~~~~~~~!!!)'''",
"{{{]^^^^^^/^^^^^^]{{{",
"{{{]^^^^^^/^^^^^^]{{{",
"{{{]^^^^^^/^^^^^^]{{{",
"(((_:::::::::::::_(((",
"<<<[}}}}}}}}}}}}}[<<<",
"|||122222222222221|||",
"333+4444444444444+333",
"555555555555555555555",
"666666666666666666666",
"777777777777777777777"};
