/* XPM */
static char * closefcs_xpm[] = {
"19 19 261 2",
"  	c #E9E9E9",
". 	c #EAEAE9",
"+ 	c #EAE9E9",
"@ 	c #EAEAEA",
"# 	c #EAEBEA",
"$ 	c #EAEAEB",
"% 	c #EBEBEB",
"& 	c #E3E3E3",
"* 	c #E5E5E3",
"= 	c #E5E5E5",
"- 	c #E5E6E5",
"; 	c #E5E6E6",
"> 	c #E6E6E6",
", 	c #E6E7E6",
"' 	c #E7E7E6",
") 	c #E7E7E7",
"! 	c #E8E7E8",
"~ 	c #E7E8E8",
"{ 	c #E8E8E8",
"] 	c #E9E9E8",
"^ 	c #DFDEDF",
"/ 	c #DFDFDF",
"( 	c #DFDFE0",
"_ 	c #DFE0DF",
": 	c #E0E0E0",
"< 	c #E0DFDF",
"[ 	c #DEDDDE",
"} 	c #DCDEDE",
"| 	c #DCDDDD",
"1 	c #DEDEDE",
"2 	c #DFDEDE",
"3 	c #E0E1E0",
"4 	c #E1E2E2",
"5 	c #E2E2E2",
"6 	c #E3E3E2",
"7 	c #E2E2E3",
"8 	c #D9D9DA",
"9 	c #D9DADA",
"0 	c #DADADA",
"a 	c #DADCDA",
"b 	c #DADADC",
"c 	c #D7D7D9",
"d 	c #CBCBCC",
"e 	c #B9B9B9",
"f 	c #ABABAB",
"g 	c #A4A4A4",
"h 	c #AAAAAA",
"i 	c #DADBDA",
"j 	c #DDDDDD",
"k 	c #DDDEDD",
"l 	c #DEDEDF",
"m 	c #DEDFDE",
"n 	c #D5D5D5",
"o 	c #D5D5D6",
"p 	c #D4D5D4",
"q 	c #D1D1D0",
"r 	c #BCBCBC",
"s 	c #A5A5A5",
"t 	c #787878",
"u 	c #464746",
"v 	c #2D2D2D",
"w 	c #474646",
"x 	c #A6A6A6",
"y 	c #BDBDBD",
"z 	c #D3D3D3",
"A 	c #D9D7D7",
"B 	c #D8D8D8",
"C 	c #D9D9D9",
"D 	c #CFD0D0",
"E 	c #D0D0D0",
"F 	c #CCCCCC",
"G 	c #BABABA",
"H 	c #A3A3A3",
"I 	c #565656",
"J 	c #282828",
"K 	c #202020",
"L 	c #222222",
"M 	c #565857",
"N 	c #A4A3A3",
"O 	c #D4D4D4",
"P 	c #D5D5D4",
"Q 	c #D5D3D5",
"R 	c #CACACA",
"S 	c #CBCBCA",
"T 	c #C8C8C8",
"U 	c #A8A8A8",
"V 	c #5D5D5E",
"W 	c #2E2F2F",
"X 	c #292828",
"Y 	c #282728",
"Z 	c #282727",
"` 	c #272828",
" .	c #2E2E2E",
"..	c #5D5D5D",
"+.	c #A8A8A9",
"@.	c #CDCDCD",
"#.	c #CECDCD",
"$.	c #C3C3C2",
"%.	c #C3C3C3",
"&.	c #BEBEBE",
"*.	c #AEAEAF",
"=.	c #838282",
"-.	c #3C3B3C",
";.	c #333333",
">.	c #51545A",
",.	c #696C74",
"'.	c #505257",
").	c #313232",
"!.	c #3C3C3D",
"~.	c #838384",
"{.	c #B0B0B0",
"].	c #C2C3C1",
"^.	c #C6C6C7",
"/.	c #C6C7C7",
"(.	c #BCBDBC",
"_.	c #BCBBBC",
":.	c #B7B8B8",
"<.	c #646464",
"[.	c #3F3F3F",
"}.	c #3C3C3C",
"|.	c #2F2F32",
"1.	c #9096A2",
"2.	c #B7BFD2",
"3.	c #838A9C",
"4.	c #2F2F2F",
"5.	c #403F3F",
"6.	c #ACADAD",
"7.	c #BFBFBF",
"8.	c #B3B3B4",
"9.	c #B3B2B2",
"0.	c #AEAEAE",
"a.	c #ADADAC",
"b.	c #5C5C5C",
"c.	c #484848",
"d.	c #464646",
"e.	c #09090B",
"f.	c #9499A5",
"g.	c #BBC1D5",
"h.	c #888E9F",
"i.	c #0A0909",
"j.	c #484646",
"k.	c #ADADAD",
"l.	c #B2B2B1",
"m.	c #B6B6B6",
"n.	c #B7B7B7",
"o.	c #AAAAA7",
"p.	c #A5A5A6",
"q.	c #717271",
"r.	c #555555",
"s.	c #515151",
"t.	c #0E0E0F",
"u.	c #9396A3",
"v.	c #BEC4D5",
"w.	c #888E9D",
"x.	c #0E0E0E",
"y.	c #545455",
"z.	c #727172",
"A.	c #AAAAA9",
"B.	c #AAAAAB",
"C.	c #ABACAB",
"D.	c #9D9D9D",
"E.	c #9C9C9C",
"F.	c #989898",
"G.	c #A1A0A1",
"H.	c #8F8E8F",
"I.	c #5B5B5B",
"J.	c #535253",
"K.	c #313137",
"L.	c #83868D",
"M.	c #2D2F34",
"N.	c #545453",
"O.	c #5A595A",
"P.	c #646564",
"Q.	c #8D8D8D",
"R.	c #A09F9F",
"S.	c #969797",
"T.	c #8A8B8B",
"U.	c #8B8B8A",
"V.	c #858585",
"W.	c #8B8B8B",
"X.	c #7D7D7D",
"Y.	c #676767",
"Z.	c #636262",
"`.	c #262626",
" +	c #636363",
".+	c #626262",
"++	c #676867",
"@+	c #7E7E7E",
"#+	c #8D8D8C",
"$+	c #898989",
"%+	c #8E8E8E",
"&+	c #868686",
"*+	c #858685",
"=+	c #7E7F7F",
"-+	c #999898",
";+	c #A2A1A2",
">+	c #858485",
",+	c #757675",
"'+	c #727171",
")+	c #6F6F70",
"!+	c #717171",
"~+	c #757576",
"{+	c #A2A2A1",
"]+	c #999A9A",
"^+	c #808081",
"/+	c #898988",
"(+	c #8A8A8A",
"_+	c #828282",
":+	c #848282",
"<+	c #828080",
"[+	c #797977",
"}+	c #989896",
"|+	c #A7A8A7",
"1+	c #959495",
"2+	c #888888",
"3+	c #959595",
"4+	c #A8A7A8",
"5+	c #999999",
"6+	c #7A7B7A",
"7+	c #848484",
"8+	c #7E7E7F",
"9+	c #7F7F7F",
"0+	c #7F7F7E",
"a+	c #7D7E7D",
"b+	c #777677",
"c+	c #A2A2A3",
"d+	c #989999",
"e+	c #777777",
"f+	c #818281",
"g+	c #7A7A7A",
"h+	c #7A7C7A",
"i+	c #7A7A7C",
"j+	c #7C7A7A",
"k+	c #7C7C7C",
"l+	c #737473",
"m+	c #717272",
"n+	c #747474",
"o+	c #7A7979",
"p+	c #7E7D7D",
"q+	c #7E7D7E",
"r+	c #767677",
"s+	c #777676",
"t+	c #767776",
"u+	c #767777",
"v+	c #777778",
"w+	c #797978",
"x+	c #787979",
"y+	c #797879",
"z+	c #797979",
"A+	c #79797A",
"B+	c #7A7A79",
"C+	c #727272",
"D+	c #737272",
"E+	c #737373",
"F+	c #737372",
"G+	c #727372",
"H+	c #757373",
"I+	c #737575",
"J+	c #767575",
"K+	c #767675",
"L+	c #767676",
"      . + @ # # # $ % % % % % % % % % ",
"& * = = - - ; > > > , ' ) ) ! ~ ! { ] ",
"^ / ( _ / : < [ } | 1 2 3 4 5 6 6 7 & ",
"8 9 0 a b c d e f g h e d i j k 1 l m ",
"n n o p q r s t u v w t x y z A B C C ",
"D D E F G H I J K K L J M N r E O P Q ",
"R S T y U V W X Y Z J `  ...+.y R @.#.",
"$.%.&.*.=.-.;. .>.,.'. .).!.~.{.].^./.",
"(._.:.f <.[.}.|.1.2.3.4.}.5.<.6.e &.7.",
"8.9.0.a.b.c.d.e.f.g.h.i.j.c...k.l.m.n.",
"U o.p.h q.r.s.t.u.v.w.x.s.y.z.A.s B.C.",
"D.E.F.G.H.<.I.J.K.L.M.N.O.P.Q.R.S.E.E.",
"T.U.V.W.s X.Y.Z.Z.`. +.+++@+x #+$+%+%+",
"&+&+*+=+-+;+>+,+'+)+!+~+V.{+]+^+/+(+(+",
"_+_+:+<+[+}+|+1+2+V.$+3+4+5+6+7+&+&+&+",
"@+8+9+0+a+b+_+F.H x c+d+_+e+9+f+_+_+_+",
"g+g+h+i+j+k+t l+m+)+!+n+o+p+q+@+@+@+@+",
"r+s+t+u+e+v+e+v+t w+x+y+z+z+A+o+B+g+g+",
"C+D+E+F+G+E+H+I+H+I+,+J+K+L+L+L+L+L+L+"};
