/* XPM */
static char * menuiconufcs_xpm[] = {
"19 19 227 2",
"  	c #E9E9E9",
". 	c #EAEAE9",
"+ 	c #EAE9E9",
"@ 	c #EAEAEA",
"# 	c #EAEBEA",
"$ 	c #EAEAEB",
"% 	c #EBEBEB",
"& 	c #E3E3E3",
"* 	c #E5E5E3",
"= 	c #E5E5E5",
"- 	c #E5E6E5",
"; 	c #E5E6E6",
"> 	c #E6E6E6",
", 	c #E6E7E6",
"' 	c #E7E7E6",
") 	c #E7E7E7",
"! 	c #E8E7E8",
"~ 	c #E7E8E8",
"{ 	c #E8E8E8",
"] 	c #E9E9E8",
"^ 	c #DFDEDF",
"/ 	c #DFDFDF",
"( 	c #DFDFE0",
"_ 	c #DFE0DF",
": 	c #E0E0E0",
"< 	c #E1E0E0",
"[ 	c #E1E0E1",
"} 	c #E0E1E1",
"| 	c #E1E1E1",
"1 	c #E2E1E1",
"2 	c #E1E2E1",
"3 	c #E1E2E2",
"4 	c #E2E2E2",
"5 	c #E3E3E2",
"6 	c #E2E2E3",
"7 	c #D9D9DA",
"8 	c #D9DADA",
"9 	c #DADADA",
"0 	c #DADCDA",
"a 	c #DADADC",
"b 	c #DCDCDC",
"c 	c #DCDDDD",
"d 	c #DDDCDD",
"e 	c #DDDDDC",
"f 	c #DDDDDD",
"g 	c #DDDEDD",
"h 	c #DEDEDE",
"i 	c #DEDEDF",
"j 	c #DEDFDE",
"k 	c #D5D5D5",
"l 	c #D5D5D6",
"m 	c #D5D6D5",
"n 	c #D6D6D5",
"o 	c #D6D6D6",
"p 	c #D7D6D7",
"q 	c #D7D7D6",
"r 	c #D7D7D7",
"s 	c #D8D7D7",
"t 	c #D7D8D7",
"u 	c #D8D8D8",
"v 	c #D9D8D8",
"w 	c #D9D9D9",
"x 	c #CFD0D0",
"y 	c #D0D0D0",
"z 	c #D1D0D0",
"A 	c #D1D1D0",
"B 	c #D1D0D1",
"C 	c #D1D1D1",
"D 	c #D3D1D1",
"E 	c #D3D3D3",
"F 	c #D3D4D4",
"G 	c #D4D4D4",
"H 	c #D5D5D4",
"I 	c #D5D3D5",
"J 	c #CACACA",
"K 	c #CBCBCA",
"L 	c #CBCBCB",
"M 	c #CBCBCC",
"N 	c #CBCCCC",
"O 	c #CCCBCC",
"P 	c #CCCCCC",
"Q 	c #CDCDCC",
"R 	c #CCCCCD",
"S 	c #CDCDCD",
"T 	c #CECDCD",
"U 	c #C3C3C2",
"V 	c #C3C3C3",
"W 	c #C3C3C4",
"X 	c #C4C3C3",
"Y 	c #C4C3C4",
"Z 	c #C4C4C4",
"` 	c #C4C4C5",
" .	c #C4C5C5",
"..	c #C5C5C5",
"+.	c #C5C5C7",
"@.	c #C5C7C7",
"#.	c #C7C5C7",
"$.	c #C7C7C7",
"%.	c #C7C8C6",
"&.	c #C6C6C7",
"*.	c #C6C7C7",
"=.	c #BCBDBC",
"-.	c #BDBCBD",
";.	c #BCBDBD",
">.	c #BDBDBD",
",.	c #BEBDBD",
"'.	c #BDBEBE",
").	c #000000",
"!.	c #BEBEBE",
"~.	c #BEBFBE",
"{.	c #BEBFBF",
"].	c #BFBFBF",
"^.	c #B3B3B4",
"/.	c #B4B3B3",
"(.	c #B3B3B3",
"_.	c #B4B4B3",
":.	c #B3B4B3",
"<.	c #B4B4B4",
"[.	c #B5B5B5",
"}.	c #B5B5B4",
"|.	c #B7B4B4",
"1.	c #B6B6B4",
"2.	c #B6B6B6",
"3.	c #B7B6B7",
"4.	c #B7B7B6",
"5.	c #B7B7B7",
"6.	c #A8A8A8",
"7.	c #ABABA8",
"8.	c #AAAAAB",
"9.	c #AAAAAA",
"0.	c #AAABAA",
"a.	c #ABABAB",
"b.	c #ACAAAC",
"c.	c #ABABAA",
"d.	c #ABABAC",
"e.	c #ABACAB",
"f.	c #9D9D9D",
"g.	c #9E9E9E",
"h.	c #9E9C9D",
"i.	c #9D9D9C",
"j.	c #9D9C9C",
"k.	c #9C9D9D",
"l.	c #9C9C9C",
"m.	c #8A8B8B",
"n.	c #8B8B8A",
"o.	c #8A8A8A",
"p.	c #8A8A8C",
"q.	c #8C8C8C",
"r.	c #8D8C8C",
"s.	c #8D8D8D",
"t.	c #8D8E8D",
"u.	c #8D8D8E",
"v.	c #8E8E8D",
"w.	c #8E8E8E",
"x.	c #868686",
"y.	c #868786",
"z.	c #868787",
"A.	c #878787",
"B.	c #888787",
"C.	c #878788",
"D.	c #888788",
"E.	c #888888",
"F.	c #898888",
"G.	c #888989",
"H.	c #898989",
"I.	c #898988",
"J.	c #89898A",
"K.	c #8A8A89",
"L.	c #828282",
"M.	c #848282",
"N.	c #848482",
"O.	c #848484",
"P.	c #858484",
"Q.	c #848585",
"R.	c #858584",
"S.	c #858585",
"T.	c #868586",
"U.	c #868585",
"V.	c #858685",
"W.	c #7E7E7E",
"X.	c #7E7E7F",
"Y.	c #7F7F7F",
"Z.	c #7F7F7E",
"`.	c #7F807F",
" +	c #807F80",
".+	c #807F7F",
"++	c #808080",
"@+	c #808081",
"#+	c #808181",
"$+	c #818181",
"%+	c #818281",
"&+	c #7A7A7A",
"*+	c #7A7C7A",
"=+	c #7A7A7C",
"-+	c #7C7A7A",
";+	c #7C7C7C",
">+	c #7C7D7C",
",+	c #7C7D7D",
"'+	c #7C7C7D",
")+	c #7D7D7D",
"!+	c #7E7D7D",
"~+	c #7E7D7E",
"{+	c #767677",
"]+	c #777676",
"^+	c #767776",
"/+	c #767777",
"(+	c #777777",
"_+	c #777778",
":+	c #787878",
"<+	c #797978",
"[+	c #787979",
"}+	c #797879",
"|+	c #797979",
"1+	c #79797A",
"2+	c #7A7979",
"3+	c #7A7A79",
"4+	c #727272",
"5+	c #737272",
"6+	c #737373",
"7+	c #737372",
"8+	c #727372",
"9+	c #757373",
"0+	c #737575",
"a+	c #757675",
"b+	c #767575",
"c+	c #767675",
"d+	c #767676",
"      . + @ # # # $ % % % % % % % % % ",
"& * = = - - ; > > > , ' ) ) ! ~ ! { ] ",
"^ / ( _ / : < [ } } | 1 2 3 4 5 5 6 & ",
"7 8 9 0 a a b b c c d e f g f g h i j ",
"k k l m n o p q q r s t u u u v u w w ",
"x x y y z A B C C D E E F E F G G H I ",
"J K J L L M N O O P Q N P P R Q S S T ",
"U V V W X Y Z Z `  .....+.@.#.$.%.&.*.",
"=.-.;.>.,.>.'.).).).).).!.!.~.{.].].].",
"^./.(._.:.<.<.<.[.}.[.|.|.1.2.3.4.5.5.",
"6.7.8.9.8.0.a.).).).).).a.a.b.c.a.d.e.",
"f.f.g.h.i.f.f.j.k.f.l.j.j.f.l.j.k.f.l.",
"m.n.o.o.p.p.q.q.r.q.q.s.t.u.t.v.w.w.w.",
"x.x.y.z.A.B.C.D.D.E.F.G.H.I.J.J.K.o.o.",
"L.L.M.M.N.N.O.P.Q.R.S.S.T.U.V.x.x.x.x.",
"W.X.Y.Z.`. +.+++++++@+#+$+$+$+%+L.L.L.",
"&+&+*+=+-+;+;+>+,+'+)+)+!+!+~+W.W.W.W.",
"{+]+^+/+(+_+(+_+:+<+[+}+|+|+1+2+3+&+&+",
"4+5+6+7+8+6+9+0+9+0+a+b+c+d+d+d+d+d+d+"};
