/* XPM */
static char * minpr_xpm[] = {
"19 19 263 2",
"  	c #E9E9E9",
". 	c #EAEAE9",
"+ 	c #EAE9E9",
"@ 	c #EAEAEA",
"# 	c #EAEBEA",
"$ 	c #EAEAEB",
"% 	c #EBEBEB",
"& 	c #E3E3E3",
"* 	c #E5E5E3",
"= 	c #E5E5E5",
"- 	c #E5E6E5",
"; 	c #E5E6E6",
"> 	c #E6E6E6",
", 	c #E6E7E6",
"' 	c #E7E7E6",
") 	c #E7E7E7",
"! 	c #E8E7E8",
"~ 	c #E7E8E8",
"{ 	c #E8E8E8",
"] 	c #E9E9E8",
"^ 	c #DFDEDF",
"/ 	c #DFDFDF",
"( 	c #DFDFE0",
"_ 	c #DFE0DF",
": 	c #E0E0E0",
"< 	c #E0DFDF",
"[ 	c #DEDDDE",
"} 	c #DCDEDE",
"| 	c #DCDDDD",
"1 	c #DEDEDE",
"2 	c #DFDEDE",
"3 	c #E0E1E0",
"4 	c #E1E2E2",
"5 	c #E2E2E2",
"6 	c #E3E3E2",
"7 	c #E2E2E3",
"8 	c #D9D9DA",
"9 	c #D9DADA",
"0 	c #DADADA",
"a 	c #DADCDA",
"b 	c #DADADC",
"c 	c #D7D7D9",
"d 	c #CBCBCC",
"e 	c #B9B9B9",
"f 	c #ABABAB",
"g 	c #A4A4A4",
"h 	c #AAAAAA",
"i 	c #DADBDA",
"j 	c #DDDDDD",
"k 	c #DDDEDD",
"l 	c #DEDEDF",
"m 	c #DEDFDE",
"n 	c #D5D5D5",
"o 	c #D5D5D6",
"p 	c #D4D5D4",
"q 	c #D1D1D0",
"r 	c #BCBCBC",
"s 	c #A5A5A5",
"t 	c #787878",
"u 	c #464746",
"v 	c #2D2D2D",
"w 	c #474646",
"x 	c #A6A6A6",
"y 	c #BDBDBD",
"z 	c #D3D3D3",
"A 	c #D9D7D7",
"B 	c #D8D8D8",
"C 	c #D9D9D9",
"D 	c #CFD0D0",
"E 	c #D0D0D0",
"F 	c #CCCCCC",
"G 	c #BABABA",
"H 	c #A3A3A3",
"I 	c #565656",
"J 	c #523935",
"K 	c #7B453C",
"L 	c #964F44",
"M 	c #83493F",
"N 	c #565857",
"O 	c #A4A3A3",
"P 	c #D4D4D4",
"Q 	c #D5D5D4",
"R 	c #D5D3D5",
"S 	c #CACACA",
"T 	c #CBCBCA",
"U 	c #C8C8C8",
"V 	c #A8A8A8",
"W 	c #5D5D5E",
"X 	c #91584D",
"Y 	c #C66656",
"Z 	c #C16356",
"` 	c #C16354",
" .	c #C16656",
"..	c #BC6656",
"+.	c #91564C",
"@.	c #5D5D5D",
"#.	c #A8A8A9",
"$.	c #CDCDCD",
"%.	c #CECDCD",
"&.	c #C3C3C2",
"*.	c #C3C3C3",
"=.	c #BEBEBE",
"-.	c #AEAEAF",
";.	c #838282",
">.	c #72544F",
",.	c #F6826E",
"'.	c #DB7463",
").	c #CB8680",
"!.	c #DB9A96",
"~.	c #CC857D",
"{.	c #EC806C",
"].	c #725650",
"^.	c #838384",
"/.	c #B0B0B0",
"(.	c #C2C3C1",
"_.	c #C6C6C7",
":.	c #C6C7C7",
"<.	c #BCBDBC",
"[.	c #BCBBBC",
"}.	c #B7B8B8",
"|.	c #646464",
"1.	c #CE8875",
"2.	c #FF9982",
"3.	c #AE6D5F",
"4.	c #9598A4",
"5.	c #B7C0D3",
"6.	c #888C9E",
"7.	c #AE6D5E",
"8.	c #ACADAD",
"9.	c #BFBFBF",
"0.	c #B3B3B4",
"a.	c #B3B2B2",
"b.	c #AEAEAE",
"c.	c #ADADAC",
"d.	c #5C5C5C",
"e.	c #F9B499",
"f.	c #FFB397",
"g.	c #623428",
"h.	c #9499A5",
"i.	c #BBC1D5",
"j.	c #888E9F",
"k.	c #623426",
"l.	c #ADADAD",
"m.	c #B2B2B1",
"n.	c #B6B6B6",
"o.	c #B7B7B7",
"p.	c #AAAAA7",
"q.	c #A5A5A6",
"r.	c #717271",
"s.	c #D4B79F",
"t.	c #FFCFAF",
"u.	c #734E3B",
"v.	c #989AA5",
"w.	c #BEC4D6",
"x.	c #8D929F",
"y.	c #734E38",
"z.	c #D3B69F",
"A.	c #727172",
"B.	c #AAAAA9",
"C.	c #AAAAAB",
"D.	c #ABACAB",
"E.	c #9D9D9D",
"F.	c #9C9C9C",
"G.	c #989898",
"H.	c #A1A0A1",
"I.	c #8F8E8F",
"J.	c #8F8F84",
"K.	c #FFE8C5",
"L.	c #EAD0B3",
"M.	c #BCA288",
"N.	c #E3D8CB",
"O.	c #B29D83",
"P.	c #EAD5B3",
"Q.	c #FFE3C3",
"R.	c #8D8D8D",
"S.	c #A09F9F",
"T.	c #969797",
"U.	c #8A8B8B",
"V.	c #8B8B8A",
"W.	c #858585",
"X.	c #8B8B8B",
"Y.	c #7D7D7D",
"Z.	c #BCBCAA",
"`.	c #FFFAD4",
" +	c #FFFBB4",
".+	c #FFFDD6",
"++	c #BCBDAA",
"@+	c #7E7E7E",
"#+	c #8D8D8C",
"$+	c #898989",
"%+	c #8E8E8E",
"&+	c #868686",
"*+	c #858685",
"=+	c #7E7F7F",
"-+	c #999898",
";+	c #A2A1A2",
">+	c #858485",
",+	c #9B9C9A",
"'+	c #DBDBD3",
")+	c #FAFAEE",
"!+	c #9B9B9C",
"~+	c #A2A2A1",
"{+	c #999A9A",
"]+	c #808081",
"^+	c #898988",
"/+	c #8A8A8A",
"(+	c #828282",
"_+	c #848282",
":+	c #828080",
"<+	c #797977",
"[+	c #989896",
"}+	c #A7A8A7",
"|+	c #959495",
"1+	c #888888",
"2+	c #959595",
"3+	c #A8A7A8",
"4+	c #999999",
"5+	c #7A7B7A",
"6+	c #848484",
"7+	c #7E7E7F",
"8+	c #7F7F7F",
"9+	c #7F7F7E",
"0+	c #7D7E7D",
"a+	c #777677",
"b+	c #A2A2A3",
"c+	c #989999",
"d+	c #777777",
"e+	c #818281",
"f+	c #7A7A7A",
"g+	c #7A7C7A",
"h+	c #7A7A7C",
"i+	c #7C7A7A",
"j+	c #7C7C7C",
"k+	c #737473",
"l+	c #717272",
"m+	c #6F6F70",
"n+	c #717171",
"o+	c #747474",
"p+	c #7A7979",
"q+	c #7E7D7D",
"r+	c #7E7D7E",
"s+	c #767677",
"t+	c #777676",
"u+	c #767776",
"v+	c #767777",
"w+	c #777778",
"x+	c #797978",
"y+	c #787979",
"z+	c #797879",
"A+	c #797979",
"B+	c #79797A",
"C+	c #7A7A79",
"D+	c #727272",
"E+	c #737272",
"F+	c #737373",
"G+	c #737372",
"H+	c #727372",
"I+	c #757373",
"J+	c #737575",
"K+	c #757675",
"L+	c #767575",
"M+	c #767675",
"N+	c #767676",
"      . + @ # # # $ % % % % % % % % % ",
"& * = = - - ; > > > , ' ) ) ! ~ ! { ] ",
"^ / ( _ / : < [ } | 1 2 3 4 5 6 6 7 & ",
"8 9 0 a b c d e f g h e d i j k 1 l m ",
"n n o p q r s t u v w t x y z A B C C ",
"D D E F G H I J K L M J N O r E P Q R ",
"S T U y V W X Y Z `  ...+.@.#.y S $.%.",
"&.*.=.-.;.>.,.'.).!.~.'.{.].^./.(._.:.",
"<.[.}.f |.1.2.3.4.5.6.7.2.1.|.8.e =.9.",
"0.a.b.c.d.e.f.g.h.i.j.k.f.e.@.l.m.n.o.",
"V p.q.h r.s.t.u.v.w.x.y.t.z.A.B.s C.D.",
"E.F.G.H.I.J.K.L.M.N.O.P.Q.J.R.S.T.F.F.",
"U.V.W.X.s Y.Z.`.`. +.+`.++@+x #+$+%+%+",
"&+&+*+=+-+;+>+,+'+)+'+!+W.~+{+]+^+/+/+",
"(+(+_+:+<+[+}+|+1+W.$+2+3+4+5+6+&+&+&+",
"@+7+8+9+0+a+(+G.H x b+c+(+d+8+e+(+(+(+",
"f+f+g+h+i+j+t k+l+m+n+o+p+q+r+@+@+@+@+",
"s+t+u+v+d+w+d+w+t x+y+z+A+A+B+p+C+f+f+",
"D+E+F+G+H+F+I+J+I+J+K+L+M+N+N+N+N+N+N+"};
