/* XPM */
static char * stickpr_xpm[] = {
"19 19 254 2",
"  	c #E9E9E9",
". 	c #EAEAE9",
"+ 	c #EAE9E9",
"@ 	c #EAEAEA",
"# 	c #EAEBEA",
"$ 	c #EAEAEB",
"% 	c #EBEBEB",
"& 	c #E3E3E3",
"* 	c #E5E5E3",
"= 	c #E5E5E5",
"- 	c #E5E6E5",
"; 	c #E5E6E6",
"> 	c #E6E6E6",
", 	c #E6E7E6",
"' 	c #E7E7E6",
") 	c #E7E7E7",
"! 	c #E8E7E8",
"~ 	c #E7E8E8",
"{ 	c #E8E8E8",
"] 	c #E9E9E8",
"^ 	c #DFDEDF",
"/ 	c #DFDFDF",
"( 	c #DFDFE0",
"_ 	c #DFE0DF",
": 	c #E0E0E0",
"< 	c #E0DFDF",
"[ 	c #DEDDDE",
"} 	c #DCDEDE",
"| 	c #DCDDDD",
"1 	c #DEDEDE",
"2 	c #DFDEDE",
"3 	c #E0E1E0",
"4 	c #E1E2E2",
"5 	c #E2E2E2",
"6 	c #E3E3E2",
"7 	c #E2E2E3",
"8 	c #D9D9DA",
"9 	c #D9DADA",
"0 	c #DADADA",
"a 	c #DADCDA",
"b 	c #DADADC",
"c 	c #D7D7D9",
"d 	c #CBCBCC",
"e 	c #B9B9B9",
"f 	c #ABABAB",
"g 	c #A4A4A4",
"h 	c #AAAAAA",
"i 	c #DADBDA",
"j 	c #DDDDDD",
"k 	c #DDDEDD",
"l 	c #DEDEDF",
"m 	c #DEDFDE",
"n 	c #D5D5D5",
"o 	c #D5D5D6",
"p 	c #D4D5D4",
"q 	c #D1D1D0",
"r 	c #BCBCBC",
"s 	c #A5A5A5",
"t 	c #787878",
"u 	c #464746",
"v 	c #2D2D2D",
"w 	c #474646",
"x 	c #A6A6A6",
"y 	c #BDBDBD",
"z 	c #D3D3D3",
"A 	c #D9D7D7",
"B 	c #D8D8D8",
"C 	c #D9D9D9",
"D 	c #CFD0D0",
"E 	c #D0D0D0",
"F 	c #CCCCCC",
"G 	c #BABABA",
"H 	c #A3A3A3",
"I 	c #565656",
"J 	c #443330",
"K 	c #5B3832",
"L 	c #6D3F37",
"M 	c #613C35",
"N 	c #565857",
"O 	c #A4A3A3",
"P 	c #D4D4D4",
"Q 	c #D5D5D4",
"R 	c #D5D3D5",
"S 	c #CACACA",
"T 	c #CBCBCA",
"U 	c #C8C8C8",
"V 	c #A8A8A8",
"W 	c #5D5D5E",
"X 	c #6E4A43",
"Y 	c #8F5046",
"Z 	c #8C4E46",
"` 	c #8C4E44",
" .	c #8C5046",
"..	c #885046",
"+.	c #6E4841",
"@.	c #5D5D5D",
"#.	c #A8A8A9",
"$.	c #CDCDCD",
"%.	c #CECDCD",
"&.	c #C3C3C2",
"*.	c #C3C3C3",
"=.	c #BEBEBE",
"-.	c #AEAEAF",
";.	c #838282",
">.	c #5F4C49",
",.	c #B26659",
"'.	c #AB6256",
").	c #AB6258",
"!.	c #AE6558",
"~.	c #AB6558",
"{.	c #5F4D4A",
"].	c #838384",
"^.	c #B0B0B0",
"/.	c #C2C3C1",
"(.	c #C6C6C7",
"_.	c #C6C7C7",
":.	c #BCBDBC",
"<.	c #BCBBBC",
"[.	c #B7B8B8",
"}.	c #646464",
"|.	c #9C6F62",
"1.	c #BB796A",
"2.	c #BB7B6A",
"3.	c #BB7B6B",
"4.	c #9D6F62",
"5.	c #ACADAD",
"6.	c #BFBFBF",
"7.	c #B3B3B4",
"8.	c #B3B2B2",
"9.	c #AEAEAE",
"0.	c #ADADAC",
"a.	c #5C5C5C",
"b.	c #BC8F7D",
"c.	c #BE8D7B",
"d.	c #BF8F7D",
"e.	c #BE8D7D",
"f.	c #BF8D7B",
"g.	c #ADADAD",
"h.	c #B2B2B1",
"i.	c #B6B6B6",
"j.	c #B7B7B7",
"k.	c #AAAAA7",
"l.	c #A5A5A6",
"m.	c #717271",
"n.	c #A89585",
"o.	c #C2A38E",
"p.	c #C3A38E",
"q.	c #A79485",
"r.	c #727172",
"s.	c #AAAAA9",
"t.	c #AAAAAB",
"u.	c #ABACAB",
"v.	c #9D9D9D",
"w.	c #9C9C9C",
"x.	c #989898",
"y.	c #A1A0A1",
"z.	c #8F8E8F",
"A.	c #808079",
"B.	c #C6B7A0",
"C.	c #C5B39E",
"D.	c #C5B5A0",
"E.	c #C5B59E",
"F.	c #C6B79E",
"G.	c #808179",
"H.	c #8D8D8D",
"I.	c #A09F9F",
"J.	c #969797",
"K.	c #8A8B8B",
"L.	c #8B8B8A",
"M.	c #858585",
"N.	c #8B8B8B",
"O.	c #7D7D7D",
"P.	c #9E9E93",
"Q.	c #C9C5AC",
"R.	c #C9C7AE",
"S.	c #C8C5AC",
"T.	c #9E9F93",
"U.	c #7E7E7E",
"V.	c #8D8D8C",
"W.	c #898989",
"X.	c #8E8E8E",
"Y.	c #868686",
"Z.	c #858685",
"`.	c #7E7F7F",
" +	c #999898",
".+	c #A2A1A2",
"++	c #858485",
"@+	c #8E8F8E",
"#+	c #B7B6B1",
"$+	c #CACAC2",
"%+	c #B6B6B1",
"&+	c #8E8E8F",
"*+	c #A2A2A1",
"=+	c #999A9A",
"-+	c #808081",
";+	c #898988",
">+	c #8A8A8A",
",+	c #828282",
"'+	c #848282",
")+	c #828080",
"!+	c #797977",
"~+	c #989896",
"{+	c #A7A8A7",
"]+	c #959495",
"^+	c #888888",
"/+	c #959595",
"(+	c #A8A7A8",
"_+	c #999999",
":+	c #7A7B7A",
"<+	c #848484",
"[+	c #7E7E7F",
"}+	c #7F7F7F",
"|+	c #7F7F7E",
"1+	c #7D7E7D",
"2+	c #777677",
"3+	c #A2A2A3",
"4+	c #989999",
"5+	c #777777",
"6+	c #818281",
"7+	c #7A7A7A",
"8+	c #7A7C7A",
"9+	c #7A7A7C",
"0+	c #7C7A7A",
"a+	c #7C7C7C",
"b+	c #737473",
"c+	c #717272",
"d+	c #6F6F70",
"e+	c #717171",
"f+	c #747474",
"g+	c #7A7979",
"h+	c #7E7D7D",
"i+	c #7E7D7E",
"j+	c #767677",
"k+	c #777676",
"l+	c #767776",
"m+	c #767777",
"n+	c #777778",
"o+	c #797978",
"p+	c #787979",
"q+	c #797879",
"r+	c #797979",
"s+	c #79797A",
"t+	c #7A7A79",
"u+	c #727272",
"v+	c #737272",
"w+	c #737373",
"x+	c #737372",
"y+	c #727372",
"z+	c #757373",
"A+	c #737575",
"B+	c #757675",
"C+	c #767575",
"D+	c #767675",
"E+	c #767676",
"      . + @ # # # $ % % % % % % % % % ",
"& * = = - - ; > > > , ' ) ) ! ~ ! { ] ",
"^ / ( _ / : < [ } | 1 2 3 4 5 6 6 7 & ",
"8 9 0 a b c d e f g h e d i j k 1 l m ",
"n n o p q r s t u v w t x y z A B C C ",
"D D E F G H I J K L M J N O r E P Q R ",
"S T U y V W X Y Z `  ...+.@.#.y S $.%.",
"&.*.=.-.;.>.,.'.).!.!.'.~.{.].^./.(._.",
":.<.[.f }.|.1.2.2.1.3.3.1.4.}.5.e =.6.",
"7.8.9.0.a.b.c.d.d.d.e.d.f.b.@.g.h.i.j.",
"V k.l.h m.n.o.o.p.o.o.o.o.q.r.s.s t.u.",
"v.w.x.y.z.A.B.C.D.B.E.F.C.G.H.I.J.w.w.",
"K.L.M.N.s O.P.Q.Q.R.R.S.T.U.x V.W.X.X.",
"Y.Y.Z.`. +.+++@+#+$+%+&+M.*+=+-+;+>+>+",
",+,+'+)+!+~+{+]+^+M.W./+(+_+:+<+Y.Y.Y.",
"U.[+}+|+1+2+,+x.H x 3+4+,+5+}+6+,+,+,+",
"7+7+8+9+0+a+t b+c+d+e+f+g+h+i+U.U.U.U.",
"j+k+l+m+5+n+5+n+t o+p+q+r+r+s+g+t+7+7+",
"u+v+w+x+y+w+z+A+z+A+B+C+D+E+E+E+E+E+E+"};
