/* XPM */
static char * stickfcs_xpm[] = {
"19 19 249 2",
"  	c #E9E9E9",
". 	c #EAEAE9",
"+ 	c #EAE9E9",
"@ 	c #EAEAEA",
"# 	c #EAEBEA",
"$ 	c #EAEAEB",
"% 	c #EBEBEB",
"& 	c #E3E3E3",
"* 	c #E5E5E3",
"= 	c #E5E5E5",
"- 	c #E5E6E5",
"; 	c #E5E6E6",
"> 	c #E6E6E6",
", 	c #E6E7E6",
"' 	c #E7E7E6",
") 	c #E7E7E7",
"! 	c #E8E7E8",
"~ 	c #E7E8E8",
"{ 	c #E8E8E8",
"] 	c #E9E9E8",
"^ 	c #DFDEDF",
"/ 	c #DFDFDF",
"( 	c #DFDFE0",
"_ 	c #DFE0DF",
": 	c #E0E0E0",
"< 	c #E0DFDF",
"[ 	c #DEDDDE",
"} 	c #DCDEDE",
"| 	c #DCDDDD",
"1 	c #DEDEDE",
"2 	c #DFDEDE",
"3 	c #E0E1E0",
"4 	c #E1E2E2",
"5 	c #E2E2E2",
"6 	c #E3E3E2",
"7 	c #E2E2E3",
"8 	c #D9D9DA",
"9 	c #D9DADA",
"0 	c #DADADA",
"a 	c #DADCDA",
"b 	c #DADADC",
"c 	c #D7D7D9",
"d 	c #CBCBCC",
"e 	c #B9B9B9",
"f 	c #ABABAB",
"g 	c #A4A4A4",
"h 	c #AAAAAA",
"i 	c #DADBDA",
"j 	c #DDDDDD",
"k 	c #DDDEDD",
"l 	c #DEDEDF",
"m 	c #DEDFDE",
"n 	c #D5D5D5",
"o 	c #D5D5D6",
"p 	c #D4D5D4",
"q 	c #D1D1D0",
"r 	c #BCBCBC",
"s 	c #A5A5A5",
"t 	c #787878",
"u 	c #464746",
"v 	c #2D2D2D",
"w 	c #474646",
"x 	c #A6A6A6",
"y 	c #BDBDBD",
"z 	c #D3D3D3",
"A 	c #D9D7D7",
"B 	c #D8D8D8",
"C 	c #D9D9D9",
"D 	c #CFD0D0",
"E 	c #D0D0D0",
"F 	c #CCCCCC",
"G 	c #BABABA",
"H 	c #A3A3A3",
"I 	c #565656",
"J 	c #282828",
"K 	c #202020",
"L 	c #222222",
"M 	c #565857",
"N 	c #A4A3A3",
"O 	c #D4D4D4",
"P 	c #D5D5D4",
"Q 	c #D5D3D5",
"R 	c #CACACA",
"S 	c #CBCBCA",
"T 	c #C8C8C8",
"U 	c #A8A8A8",
"V 	c #5D5D5E",
"W 	c #2E2F2F",
"X 	c #292828",
"Y 	c #282728",
"Z 	c #282727",
"` 	c #272828",
" .	c #2E2E2E",
"..	c #5D5D5D",
"+.	c #A8A8A9",
"@.	c #CDCDCD",
"#.	c #CECDCD",
"$.	c #C3C3C2",
"%.	c #C3C3C3",
"&.	c #BEBEBE",
"*.	c #AEAEAF",
"=.	c #838282",
"-.	c #3C3B3C",
";.	c #333333",
">.	c #313131",
",.	c #313132",
"'.	c #323232",
").	c #313232",
"!.	c #3C3C3D",
"~.	c #838384",
"{.	c #B0B0B0",
"].	c #C2C3C1",
"^.	c #C6C6C7",
"/.	c #C6C7C7",
"(.	c #BCBDBC",
"_.	c #BCBBBC",
":.	c #B7B8B8",
"<.	c #646464",
"[.	c #3F3F3F",
"}.	c #3C3C3C",
"|.	c #3C3D3C",
"1.	c #3D3D3D",
"2.	c #403F3F",
"3.	c #ACADAD",
"4.	c #BFBFBF",
"5.	c #B3B3B4",
"6.	c #B3B2B2",
"7.	c #AEAEAE",
"8.	c #ADADAC",
"9.	c #5C5C5C",
"0.	c #484848",
"a.	c #464646",
"b.	c #474747",
"c.	c #464647",
"d.	c #484747",
"e.	c #484646",
"f.	c #ADADAD",
"g.	c #B2B2B1",
"h.	c #B6B6B6",
"i.	c #B7B7B7",
"j.	c #AAAAA7",
"k.	c #A5A5A6",
"l.	c #717271",
"m.	c #555555",
"n.	c #515151",
"o.	c #525151",
"p.	c #545455",
"q.	c #727172",
"r.	c #AAAAA9",
"s.	c #AAAAAB",
"t.	c #ABACAB",
"u.	c #9D9D9D",
"v.	c #9C9C9C",
"w.	c #989898",
"x.	c #A1A0A1",
"y.	c #8F8E8F",
"z.	c #5B5B5B",
"A.	c #5A595A",
"B.	c #5A5A5B",
"C.	c #5A5A5A",
"D.	c #5B5B5A",
"E.	c #646564",
"F.	c #8D8D8D",
"G.	c #A09F9F",
"H.	c #969797",
"I.	c #8A8B8B",
"J.	c #8B8B8A",
"K.	c #858585",
"L.	c #8B8B8B",
"M.	c #7D7D7D",
"N.	c #676767",
"O.	c #636262",
"P.	c #636363",
"Q.	c #626262",
"R.	c #676867",
"S.	c #7E7E7E",
"T.	c #8D8D8C",
"U.	c #898989",
"V.	c #8E8E8E",
"W.	c #868686",
"X.	c #858685",
"Y.	c #7E7F7F",
"Z.	c #999898",
"`.	c #A2A1A2",
" +	c #858485",
".+	c #757675",
"++	c #727171",
"@+	c #6F6F70",
"#+	c #717171",
"$+	c #757576",
"%+	c #A2A2A1",
"&+	c #999A9A",
"*+	c #808081",
"=+	c #898988",
"-+	c #8A8A8A",
";+	c #828282",
">+	c #848282",
",+	c #828080",
"'+	c #797977",
")+	c #989896",
"!+	c #A7A8A7",
"~+	c #959495",
"{+	c #888888",
"]+	c #959595",
"^+	c #A8A7A8",
"/+	c #999999",
"(+	c #7A7B7A",
"_+	c #848484",
":+	c #7E7E7F",
"<+	c #7F7F7F",
"[+	c #7F7F7E",
"}+	c #7D7E7D",
"|+	c #777677",
"1+	c #A2A2A3",
"2+	c #989999",
"3+	c #777777",
"4+	c #818281",
"5+	c #7A7A7A",
"6+	c #7A7C7A",
"7+	c #7A7A7C",
"8+	c #7C7A7A",
"9+	c #7C7C7C",
"0+	c #737473",
"a+	c #717272",
"b+	c #747474",
"c+	c #7A7979",
"d+	c #7E7D7D",
"e+	c #7E7D7E",
"f+	c #767677",
"g+	c #777676",
"h+	c #767776",
"i+	c #767777",
"j+	c #777778",
"k+	c #797978",
"l+	c #787979",
"m+	c #797879",
"n+	c #797979",
"o+	c #79797A",
"p+	c #7A7A79",
"q+	c #727272",
"r+	c #737272",
"s+	c #737373",
"t+	c #737372",
"u+	c #727372",
"v+	c #757373",
"w+	c #737575",
"x+	c #767575",
"y+	c #767675",
"z+	c #767676",
"      . + @ # # # $ % % % % % % % % % ",
"& * = = - - ; > > > , ' ) ) ! ~ ! { ] ",
"^ / ( _ / : < [ } | 1 2 3 4 5 6 6 7 & ",
"8 9 0 a b c d e f g h e d i j k 1 l m ",
"n n o p q r s t u v w t x y z A B C C ",
"D D E F G H I J K K L J M N r E O P Q ",
"R S T y U V W X Y Z J `  ...+.y R @.#.",
"$.%.&.*.=.-.;.>.,.'.'.>.).!.~.{.].^./.",
"(._.:.f <.[.}.|.|.}.1.1.}.2.<.3.e &.4.",
"5.6.7.8.9.0.a.b.b.b.c.d.e.0...f.g.h.i.",
"U j.k.h l.m.n.n.o.n.n.n.n.p.q.r.s s.t.",
"u.v.w.x.y.<.z.A.B.z.C.D.A.E.F.G.H.v.v.",
"I.J.K.L.s M.N.O.O.P.P.Q.R.S.x T.U.V.V.",
"W.W.X.Y.Z.`. +.+++@+#+$+K.%+&+*+=+-+-+",
";+;+>+,+'+)+!+~+{+K.U.]+^+/+(+_+W.W.W.",
"S.:+<+[+}+|+;+w.H x 1+2+;+3+<+4+;+;+;+",
"5+5+6+7+8+9+t 0+a+@+#+b+c+d+e+S.S.S.S.",
"f+g+h+i+3+j+3+j+t k+l+m+n+n+o+c+p+5+5+",
"q+r+s+t+u+s+v+w+v+w+.+x+y+z+z+z+z+z+z+"};
