/* XPM */
static char * stuckfcs_xpm[] = {
"19 19 249 2",
"  	c #E9E9E9",
". 	c #EAEAE9",
"+ 	c #EAE9E9",
"@ 	c #EAEAEA",
"# 	c #EAEBEA",
"$ 	c #EAEAEB",
"% 	c #EBEBEB",
"& 	c #E3E3E3",
"* 	c #E5E5E3",
"= 	c #E5E5E5",
"- 	c #E5E6E5",
"; 	c #E5E6E6",
"> 	c #E6E6E6",
", 	c #E6E7E6",
"' 	c #E7E7E6",
") 	c #E7E7E7",
"! 	c #E8E7E8",
"~ 	c #E7E8E8",
"{ 	c #E8E8E8",
"] 	c #E9E9E8",
"^ 	c #DFDEDF",
"/ 	c #DFDFDF",
"( 	c #DFDFE0",
"_ 	c #DFE0DF",
": 	c #E0E0E0",
"< 	c #E0DFDF",
"[ 	c #DEDDDE",
"} 	c #DCDEDE",
"| 	c #DCDDDD",
"1 	c #DEDEDE",
"2 	c #DFDEDE",
"3 	c #E0E1E0",
"4 	c #E1E2E2",
"5 	c #E2E2E2",
"6 	c #E3E3E2",
"7 	c #E2E2E3",
"8 	c #D9D9DA",
"9 	c #D9DADA",
"0 	c #DADADA",
"a 	c #DADCDA",
"b 	c #DADADC",
"c 	c #D7D7D9",
"d 	c #CBCBCC",
"e 	c #B9B9B9",
"f 	c #ABABAB",
"g 	c #A4A4A4",
"h 	c #AAAAAA",
"i 	c #DADBDA",
"j 	c #DDDDDD",
"k 	c #DDDEDD",
"l 	c #DEDEDF",
"m 	c #DEDFDE",
"n 	c #D5D5D5",
"o 	c #D5D5D6",
"p 	c #D4D5D4",
"q 	c #D1D1D0",
"r 	c #BCBCBC",
"s 	c #A5A5A5",
"t 	c #787878",
"u 	c #464746",
"v 	c #2D2D2D",
"w 	c #474646",
"x 	c #A6A6A6",
"y 	c #BDBDBD",
"z 	c #D3D3D3",
"A 	c #D9D7D7",
"B 	c #D8D8D8",
"C 	c #D9D9D9",
"D 	c #CFD0D0",
"E 	c #D0D0D0",
"F 	c #CCCCCC",
"G 	c #BABABA",
"H 	c #A3A3A3",
"I 	c #565656",
"J 	c #4E3733",
"K 	c #724139",
"L 	c #8B4B40",
"M 	c #79463C",
"N 	c #565857",
"O 	c #A4A3A3",
"P 	c #D4D4D4",
"Q 	c #D5D5D4",
"R 	c #D5D3D5",
"S 	c #CACACA",
"T 	c #CBCBCA",
"U 	c #C8C8C8",
"V 	c #A8A8A8",
"W 	c #5D5D5E",
"X 	c #87544A",
"Y 	c #B76051",
"Z 	c #B25D51",
"` 	c #B25D50",
" .	c #B26051",
"..	c #AD6051",
"+.	c #875249",
"@.	c #5D5D5D",
"#.	c #A8A8A9",
"$.	c #CDCDCD",
"%.	c #CECDCD",
"&.	c #C3C3C2",
"*.	c #C3C3C3",
"=.	c #BEBEBE",
"-.	c #AEAEAF",
";.	c #838282",
">.	c #6C524D",
",.	c #E37A68",
"'.	c #DA7664",
").	c #DA7666",
"!.	c #DE7866",
"~.	c #DA7866",
"{.	c #6C534F",
"].	c #838384",
"^.	c #B0B0B0",
"/.	c #C2C3C1",
"(.	c #C6C6C7",
"_.	c #C6C7C7",
":.	c #BCBDBC",
"<.	c #BCBBBC",
"[.	c #B7B8B8",
"}.	c #646464",
"|.	c #C08170",
"1.	c #EC907B",
"2.	c #EC937B",
"3.	c #EC937D",
"4.	c #ACADAD",
"5.	c #BFBFBF",
"6.	c #B3B3B4",
"7.	c #B3B2B2",
"8.	c #AEAEAE",
"9.	c #ADADAC",
"0.	c #5C5C5C",
"a.	c #E8AA91",
"b.	c #EDA88F",
"c.	c #EDAA92",
"d.	c #EDA892",
"e.	c #ADADAD",
"f.	c #B2B2B1",
"g.	c #B6B6B6",
"h.	c #B7B7B7",
"i.	c #AAAAA7",
"j.	c #A5A5A6",
"k.	c #717271",
"l.	c #C7AE97",
"m.	c #EEC3A6",
"n.	c #C7AC97",
"o.	c #727172",
"p.	c #AAAAA9",
"q.	c #AAAAAB",
"r.	c #ABACAB",
"s.	c #9D9D9D",
"t.	c #9C9C9C",
"u.	c #989898",
"v.	c #A1A0A1",
"w.	c #8F8E8F",
"x.	c #8A8A81",
"y.	c #EFDABB",
"z.	c #EFD5B9",
"A.	c #EFD8BB",
"B.	c #EFD8B9",
"C.	c #EFDAB9",
"D.	c #8A8B81",
"E.	c #8D8D8D",
"F.	c #A09F9F",
"G.	c #969797",
"H.	c #8A8B8B",
"I.	c #8B8B8A",
"J.	c #858585",
"K.	c #8B8B8B",
"L.	c #7D7D7D",
"M.	c #B4B4A4",
"N.	c #F0EBC9",
"O.	c #F0EECB",
"P.	c #7E7E7E",
"Q.	c #8D8D8C",
"R.	c #898989",
"S.	c #8E8E8E",
"T.	c #868686",
"U.	c #858685",
"V.	c #7E7F7F",
"W.	c #999898",
"X.	c #A2A1A2",
"Y.	c #858485",
"Z.	c #979897",
"`.	c #D1D0CA",
" +	c #EDEDE2",
".+	c #D0D0CA",
"++	c #979798",
"@+	c #A2A2A1",
"#+	c #999A9A",
"$+	c #808081",
"%+	c #898988",
"&+	c #8A8A8A",
"*+	c #828282",
"=+	c #848282",
"-+	c #828080",
";+	c #797977",
">+	c #989896",
",+	c #A7A8A7",
"'+	c #959495",
")+	c #888888",
"!+	c #959595",
"~+	c #A8A7A8",
"{+	c #999999",
"]+	c #7A7B7A",
"^+	c #848484",
"/+	c #7E7E7F",
"(+	c #7F7F7F",
"_+	c #7F7F7E",
":+	c #7D7E7D",
"<+	c #777677",
"[+	c #A2A2A3",
"}+	c #989999",
"|+	c #777777",
"1+	c #818281",
"2+	c #7A7A7A",
"3+	c #7A7C7A",
"4+	c #7A7A7C",
"5+	c #7C7A7A",
"6+	c #7C7C7C",
"7+	c #737473",
"8+	c #717272",
"9+	c #6F6F70",
"0+	c #717171",
"a+	c #747474",
"b+	c #7A7979",
"c+	c #7E7D7D",
"d+	c #7E7D7E",
"e+	c #767677",
"f+	c #777676",
"g+	c #767776",
"h+	c #767777",
"i+	c #777778",
"j+	c #797978",
"k+	c #787979",
"l+	c #797879",
"m+	c #797979",
"n+	c #79797A",
"o+	c #7A7A79",
"p+	c #727272",
"q+	c #737272",
"r+	c #737373",
"s+	c #737372",
"t+	c #727372",
"u+	c #757373",
"v+	c #737575",
"w+	c #757675",
"x+	c #767575",
"y+	c #767675",
"z+	c #767676",
"      . + @ # # # $ % % % % % % % % % ",
"& * = = - - ; > > > , ' ) ) ! ~ ! { ] ",
"^ / ( _ / : < [ } | 1 2 3 4 5 6 6 7 & ",
"8 9 0 a b c d e f g h e d i j k 1 l m ",
"n n o p q r s t u v w t x y z A B C C ",
"D D E F G H I J K L M J N O r E P Q R ",
"S T U y V W X Y Z `  ...+.@.#.y S $.%.",
"&.*.=.-.;.>.,.'.).!.!.'.~.{.].^./.(._.",
":.<.[.f }.|.1.2.2.1.3.3.1.|.}.4.e =.5.",
"6.7.8.9.0.a.b.c.c.c.d.c.b.a.@.e.f.g.h.",
"V i.j.h k.l.m.m.m.m.m.m.m.n.o.p.s q.r.",
"s.t.u.v.w.x.y.z.A.y.B.C.z.D.E.F.G.t.t.",
"H.I.J.K.s L.M.N.N.O.O.N.M.P.x Q.R.S.S.",
"T.T.U.V.W.X.Y.Z.`. +.+++J.@+#+$+%+&+&+",
"*+*+=+-+;+>+,+'+)+J.R.!+~+{+]+^+T.T.T.",
"P./+(+_+:+<+*+u.H x [+}+*+|+(+1+*+*+*+",
"2+2+3+4+5+6+t 7+8+9+0+a+b+c+d+P.P.P.P.",
"e+f+g+h+|+i+|+i+t j+k+l+m+m+n+b+o+2+2+",
"p+q+r+s+t+r+u+v+u+v+w+x+y+z+z+z+z+z+z+"};
