/* XPM */
static char * tbarfcs_xpm[] = {
"19 19 197 2",
"  	c #F3F3F3",
". 	c #F3F4F3",
"+ 	c #F3F3F4",
"@ 	c #F4F4F4",
"# 	c #F0F0F0",
"$ 	c #F1F1F0",
"% 	c #F1F1F1",
"& 	c #F1F2F1",
"* 	c #F2F2F1",
"= 	c #F2F2F2",
"- 	c #F3F3F2",
"; 	c #EDEDED",
"> 	c #EDEDEE",
", 	c #EDEEED",
"' 	c #EEEEEE",
") 	c #EFEEEE",
"! 	c #EFEEEF",
"~ 	c #EEEFEF",
"{ 	c #EFEFEF",
"] 	c #F0F0EF",
"^ 	c #EFEFF0",
"/ 	c #EAEAEA",
"( 	c #EAECEA",
"_ 	c #EAEAEC",
": 	c #ECECEC",
"< 	c #ECEDEC",
"[ 	c #E7E7E7",
"} 	c #E7E7E8",
"| 	c #E7E8E7",
"1 	c #E8E8E7",
"2 	c #E8E8E8",
"3 	c #E9E8E9",
"4 	c #E9E9E8",
"5 	c #E9E9E9",
"6 	c #EAE9E9",
"7 	c #E4E4E4",
"8 	c #E5E4E4",
"9 	c #E5E5E4",
"0 	c #E5E4E5",
"a 	c #E5E5E5",
"b 	c #E6E5E5",
"c 	c #E6E6E6",
"d 	c #E6E7E7",
"e 	c #E0E0E0",
"f 	c #E1E1E0",
"g 	c #E1E1E1",
"h 	c #E2E2E1",
"i 	c #E1E2E2",
"j 	c #E2E2E2",
"k 	c #E2E2E3",
"l 	c #E3E3E2",
"m 	c #E3E3E3",
"n 	c #DBDBDB",
"o 	c #DBDBDC",
"p 	c #DCDBDB",
"q 	c #DCDBDC",
"r 	c #DCDCDC",
"s 	c #DCDCDD",
"t 	c #DCDDDD",
"u 	c #DDDDDD",
"v 	c #DDDDDE",
"w 	c #DDDEDE",
"x 	c #DEDDDE",
"y 	c #DEDEDE",
"z 	c #DEDFDE",
"A 	c #DEDEDF",
"B 	c #DEDFDF",
"C 	c #D7D7D7",
"D 	c #D8D7D7",
"E 	c #D7D8D8",
"F 	c #D8D8D8",
"G 	c #D8D9D8",
"H 	c #D8D8D9",
"I 	c #D9D9D9",
"J 	c #D8DAD8",
"K 	c #D8DADA",
"L 	c #D0D0D1",
"M 	c #D1D1D1",
"N 	c #D2D2D1",
"O 	c #D1D2D1",
"P 	c #D2D2D2",
"Q 	c #D1D1D2",
"R 	c #D3D1D1",
"S 	c #D3D3D1",
"T 	c #D3D3D3",
"U 	c #D4D3D4",
"V 	c #D4D4D3",
"W 	c #D4D4D4",
"X 	c #C8C8C8",
"Y 	c #CBCBC8",
"Z 	c #CBCBCB",
"` 	c #CACBCA",
" .	c #CACACA",
"..	c #CCCACC",
"+.	c #CBCBCA",
"@.	c #CBCBCC",
"#.	c #CBCCCB",
"$.	c #BFBFBF",
"%.	c #C0C0C0",
"&.	c #C0BFC0",
"*.	c #C0C0BF",
"=.	c #C1BFBF",
"-.	c #BFC0C0",
";.	c #C1C0C0",
">.	c #C1C0BF",
",.	c #C1C1C1",
"'.	c #C0C1C1",
").	c #B1B3B3",
"!.	c #B3B3B1",
"~.	c #B2B2B2",
"{.	c #B1B1B4",
"].	c #B3B3B3",
"^.	c #B4B2B2",
"/.	c #B3B4B3",
"(.	c #B2B2B4",
"_.	c #B2B3B2",
":.	c #B3B3B2",
"<.	c #B2B3B3",
"[.	c #B1B2B1",
"}.	c #B1B1B1",
"|.	c #9D9D9D",
"1.	c #9D9E9D",
"2.	c #9D9E9E",
"3.	c #9E9E9E",
"4.	c #9F9E9E",
"5.	c #9E9F9F",
"6.	c #9F9F9F",
"7.	c #9F9F9E",
"8.	c #9F9FA0",
"9.	c #A0A09F",
"0.	c #A0A0A0",
"a.	c #A0A0A1",
"b.	c #989999",
"c.	c #999999",
"d.	c #9A9999",
"e.	c #9A9A99",
"f.	c #9A9A9A",
"g.	c #9B9A9A",
"h.	c #9A9B9B",
"i.	c #9B9B9A",
"j.	c #9B9B9B",
"k.	c #9C9B9C",
"l.	c #9C9B9B",
"m.	c #9B9C9B",
"n.	c #9C9C9C",
"o.	c #9D9C9D",
"p.	c #959595",
"q.	c #959596",
"r.	c #969696",
"s.	c #969695",
"t.	c #969697",
"u.	c #969797",
"v.	c #979797",
"w.	c #979897",
"x.	c #989898",
"y.	c #919191",
"z.	c #919291",
"A.	c #919192",
"B.	c #929191",
"C.	c #929292",
"D.	c #929392",
"E.	c #929393",
"F.	c #929293",
"G.	c #939393",
"H.	c #949393",
"I.	c #949394",
"J.	c #949594",
"K.	c #949494",
"L.	c #959594",
"M.	c #8D8D8E",
"N.	c #8E8D8D",
"O.	c #8D8E8D",
"P.	c #8D8E8E",
"Q.	c #8E8E8E",
"R.	c #8F8F8E",
"S.	c #8E8F8F",
"T.	c #8F8E8F",
"U.	c #8F8F8F",
"V.	c #8F8F90",
"W.	c #908F8F",
"X.	c #90908F",
"Y.	c #909190",
"Z.	c #919090",
"`.	c #878787",
" +	c #898888",
".+	c #898989",
"++	c #898988",
"@+	c #888988",
"#+	c #8B8989",
"$+	c #898B8B",
"%+	c #8B8C8B",
"&+	c #8C8B8B",
"*+	c #8C8C8B",
"=+	c #8C8C8C",
"-+	c #8C8C8D",
";+	c #8D8C8D",
">+	c #8D8D8D",
"            . . . + @ @ @ @ @ @ @ @ @ ",
"# $ % % % % % % % % & * = = = = = = - ",
"; ; > , ; ' ) ! ~ ~ { { { { { ] ] ^ # ",
"/ / / ( _ _ : : : : : : : < : < ; ; ; ",
"[ [ } | 1 2 3 4 4 5 5 5 5 5 5 6 5 / / ",
"7 7 7 7 8 9 0 a a b c c d c d [ [ [ [ ",
"e f e g g g g g g g h i j j k l m m m ",
"n n n o p q r r s t u u v w x y z A B ",
"C C C C D C E F G F H I I I J K I I I ",
"L M M N O P P Q M M M R R S T U V W W ",
"X Y Z `  . . . . . .Z Z Z Z ..+.Z @.#.",
"$.$.%.&.*.%.%.=.-.%.%.;.>.,.%.;.'.,.,.",
").!.~.~.{.{.].].^.~.~.]./.(._.:.<.[.}.",
"|.|.1.2.3.3.3.3.3.3.4.5.6.7.8.8.9.0.a.",
"b.c.d.d.e.e.f.g.h.i.j.j.k.l.m.n.n.o.|.",
"p.q.r.s.r.r.r.r.r.r.t.u.v.v.v.w.x.x.x.",
"y.y.z.A.B.C.C.D.E.F.G.G.H.H.I.J.K.p.L.",
"M.N.O.P.Q.Q.Q.Q.Q.R.S.T.U.U.V.W.X.Y.Z.",
"`. +.+++@+.+#+$+#+$+%+&+*+=+=+-+;+>+>+"};
