/* XPM */
static char * unshadepr_xpm[] = {
"19 19 229 2",
"  	c #E9E9E9",
". 	c #EAEAE9",
"+ 	c #EAE9E9",
"@ 	c #EAEAEA",
"# 	c #EAEBEA",
"$ 	c #EAEAEB",
"% 	c #EBEBEB",
"& 	c #E3E3E3",
"* 	c #E5E5E3",
"= 	c #E5E5E5",
"- 	c #E5E6E5",
"; 	c #E5E6E6",
"> 	c #E6E6E6",
", 	c #E6E7E6",
"' 	c #E7E7E6",
") 	c #E7E7E7",
"! 	c #E8E7E8",
"~ 	c #E7E8E8",
"{ 	c #E8E8E8",
"] 	c #E9E9E8",
"^ 	c #DFDEDF",
"/ 	c #DFDFDF",
"( 	c #DFDFE0",
"_ 	c #DFE0DF",
": 	c #E0E0E0",
"< 	c #E1E0E0",
"[ 	c #E1E0E1",
"} 	c #E0E1E1",
"| 	c #E1E1E1",
"1 	c #E2E1E1",
"2 	c #E1E2E1",
"3 	c #E1E2E2",
"4 	c #E2E2E2",
"5 	c #E3E3E2",
"6 	c #E2E2E3",
"7 	c #D9D9DA",
"8 	c #D9DADA",
"9 	c #DADADA",
"0 	c #DADCDA",
"a 	c #DADADC",
"b 	c #DCDCDC",
"c 	c #DCDDDD",
"d 	c #DDDCDD",
"e 	c #DDDDDC",
"f 	c #DDDDDD",
"g 	c #DDDEDD",
"h 	c #DEDEDE",
"i 	c #DEDEDF",
"j 	c #DEDFDE",
"k 	c #D5D5D5",
"l 	c #D5D5D6",
"m 	c #D5D6D5",
"n 	c #D6D6D5",
"o 	c #D6D6D6",
"p 	c #D7D6D7",
"q 	c #D7D7D6",
"r 	c #D7D7D7",
"s 	c #D8D7D7",
"t 	c #D7D8D7",
"u 	c #D8D8D8",
"v 	c #D9D8D8",
"w 	c #D9D9D9",
"x 	c #CFD0D0",
"y 	c #D0D0D0",
"z 	c #D1D0D0",
"A 	c #D1D1D0",
"B 	c #D1D0D1",
"C 	c #D1D1D1",
"D 	c #D3D1D1",
"E 	c #D3D3D3",
"F 	c #D3D4D4",
"G 	c #D4D4D4",
"H 	c #D5D5D4",
"I 	c #D5D3D5",
"J 	c #CACACA",
"K 	c #CBCBCA",
"L 	c #CBCBCB",
"M 	c #CBCBCC",
"N 	c #CBCCCC",
"O 	c #CCCBCC",
"P 	c #CCCCCC",
"Q 	c #CDCDCC",
"R 	c #CCCCCD",
"S 	c #CDCDCD",
"T 	c #CECDCD",
"U 	c #C3C3C2",
"V 	c #C3C3C3",
"W 	c #C3C3C4",
"X 	c #C4C3C3",
"Y 	c #C4C3C4",
"Z 	c #C4C4C4",
"` 	c #C4C4C5",
" .	c #C4C5C5",
"..	c #C5C5C5",
"+.	c #C5C5C7",
"@.	c #C5C7C7",
"#.	c #C7C5C7",
"$.	c #C7C7C7",
"%.	c #C7C8C6",
"&.	c #C6C6C7",
"*.	c #C6C7C7",
"=.	c #BCBDBC",
"-.	c #BDBCBD",
";.	c #BCBDBD",
">.	c #BDBDBD",
",.	c #BEBDBD",
"'.	c #BDBEBE",
").	c #BEBEBE",
"!.	c #BDBFBD",
"~.	c #BDBDBE",
"{.	c #BEBFBE",
"].	c #BEBFBF",
"^.	c #BFBFBF",
"/.	c #B3B3B4",
"(.	c #B4B3B3",
"_.	c #B3B3B3",
":.	c #B4B4B3",
"<.	c #B3B4B3",
"[.	c #B4B4B4",
"}.	c #000000",
"|.	c #B7B4B4",
"1.	c #B6B6B4",
"2.	c #B6B6B6",
"3.	c #B7B6B7",
"4.	c #B7B7B6",
"5.	c #B7B7B7",
"6.	c #A8A8A8",
"7.	c #ABABA8",
"8.	c #AAAAAB",
"9.	c #AAAAAA",
"0.	c #AAABAA",
"a.	c #ABABAB",
"b.	c #ABA9AB",
"c.	c #ABAAAA",
"d.	c #ACAAAC",
"e.	c #ABABAA",
"f.	c #ABABAC",
"g.	c #ABACAB",
"h.	c #9D9D9D",
"i.	c #9E9E9E",
"j.	c #9E9C9D",
"k.	c #9D9D9C",
"l.	c #9D9C9C",
"m.	c #9C9D9D",
"n.	c #9C9C9C",
"o.	c #8A8B8B",
"p.	c #8B8B8A",
"q.	c #8A8A8A",
"r.	c #8A8A8C",
"s.	c #8C8C8C",
"t.	c #8D8C8C",
"u.	c #8D8D8D",
"v.	c #8D8E8D",
"w.	c #8D8D8E",
"x.	c #8E8E8D",
"y.	c #8E8E8E",
"z.	c #868686",
"A.	c #868786",
"B.	c #868787",
"C.	c #878787",
"D.	c #888787",
"E.	c #878788",
"F.	c #888788",
"G.	c #888888",
"H.	c #898888",
"I.	c #888989",
"J.	c #898989",
"K.	c #898988",
"L.	c #89898A",
"M.	c #8A8A89",
"N.	c #828282",
"O.	c #848282",
"P.	c #848482",
"Q.	c #848484",
"R.	c #858484",
"S.	c #848585",
"T.	c #858584",
"U.	c #858585",
"V.	c #868586",
"W.	c #868585",
"X.	c #858685",
"Y.	c #7E7E7E",
"Z.	c #7E7E7F",
"`.	c #7F7F7F",
" +	c #7F7F7E",
".+	c #7F807F",
"++	c #807F80",
"@+	c #807F7F",
"#+	c #808080",
"$+	c #808081",
"%+	c #808181",
"&+	c #818181",
"*+	c #818281",
"=+	c #7A7A7A",
"-+	c #7A7C7A",
";+	c #7A7A7C",
">+	c #7C7A7A",
",+	c #7C7C7C",
"'+	c #7C7D7C",
")+	c #7C7D7D",
"!+	c #7C7C7D",
"~+	c #7D7D7D",
"{+	c #7E7D7D",
"]+	c #7E7D7E",
"^+	c #767677",
"/+	c #777676",
"(+	c #767776",
"_+	c #767777",
":+	c #777777",
"<+	c #777778",
"[+	c #787878",
"}+	c #797978",
"|+	c #787979",
"1+	c #797879",
"2+	c #797979",
"3+	c #79797A",
"4+	c #7A7979",
"5+	c #7A7A79",
"6+	c #727272",
"7+	c #737272",
"8+	c #737373",
"9+	c #737372",
"0+	c #727372",
"a+	c #757373",
"b+	c #737575",
"c+	c #757675",
"d+	c #767575",
"e+	c #767675",
"f+	c #767676",
"      . + @ # # # $ % % % % % % % % % ",
"& * = = - - ; > > > , ' ) ) ! ~ ! { ] ",
"^ / ( _ / : < [ } } | 1 2 3 4 5 5 6 & ",
"7 8 9 0 a a b b c c d e f g f g h i j ",
"k k l m n o p q q r s t u u u v u w w ",
"x x y y z A B C C D E E F E F G G H I ",
"J K J L L M N O O P Q N P P R Q S S T ",
"U V V W X Y Z Z `  .....+.@.#.$.%.&.*.",
"=.-.;.>.,.>.'.).!.>.~.).).).{.].^.^.^.",
"/.(._.:.<.[.[.[.}.}.}.|.|.1.2.3.4.5.5.",
"6.7.8.9.8.0.a.b.c.}.a.a.a.a.d.e.a.f.g.",
"h.h.i.j.k.h.h.l.m.h.n.l.l.h.n.l.m.h.n.",
"o.p.q.q.r.r.s.s.t.s.s.u.v.w.v.x.y.y.y.",
"z.z.A.B.C.D.E.F.F.G.H.I.J.K.L.L.M.q.q.",
"N.N.O.O.P.P.Q.R.S.T.U.U.V.W.X.z.z.z.z.",
"Y.Z.`. +.+++@+#+#+#+$+%+&+&+&+*+N.N.N.",
"=+=+-+;+>+,+,+'+)+!+~+~+{+{+]+Y.Y.Y.Y.",
"^+/+(+_+:+<+:+<+[+}+|+1+2+2+3+4+5+=+=+",
"6+7+8+9+0+8+a+b+a+b+c+d+e+f+f+f+f+f+f+"};
