/* XPM */
static char * closefcs_xpm[] = {
"19 19 38 1",
" 	c #B8B8B8",
".	c #999999",
"+	c #949494",
"@	c #8E8E8E",
"#	c #888888",
"$	c #838282",
"%	c #7D7D7D",
"&	c #767676",
"*	c #707070",
"=	c #595959",
"-	c #6A6A6A",
";	c #585858",
">	c #717070",
",	c #555454",
"'	c #FFFFFF",
")	c #2B2B2B",
"!	c #545353",
"~	c #505050",
"{	c #4F4F4F",
"]	c #636363",
"^	c #262626",
"/	c #5C5B5B",
"(	c #454545",
"_	c #454444",
":	c #555555",
"<	c #404040",
"[	c #202020",
"}	c #3F3F3F",
"|	c #4E4E4E",
"1	c #4A4A4A",
"2	c #3B3B3B",
"3	c #464646",
"4	c #3A3A3A",
"5	c #474646",
"6	c #3F3E3E",
"7	c #373737",
"8	c #312F2F",
"9	c #838383",
"                   ",
"...................",
"+++++++++++++++++++",
"@@@@@@@@@@@@@@@@@@@",
"###################",
"$$$$$$$$$$$$$$$$$$$",
"%%%%%%%%%%%%%%%%%%%",
"&&&&&&*==-;=*&&&&&&",
">>>>>>,'')''!>>>>>>",
"------~'''''{------",
"]]]]]]=^'''^=]]]]]]",
"//////('''''_//////",
"::::::<''[''}::::::",
"||||||1223421||||||",
"5555555555555555555",
"6666666666666666666",
"7777777777777777777",
"8888888888888888888",
"9999999999999999999"};
