/* XPM */
static char * closepr_xpm[] = {
"19 19 40 1",
" 	c #B8B8B8",
".	c #999999",
"+	c #949494",
"@	c #8E8E8E",
"#	c #888888",
"$	c #838282",
"%	c #7D7D7D",
"&	c #767676",
"*	c #737373",
"=	c #666666",
"-	c #707070",
";	c #717070",
">	c #616060",
",	c #B0AFAF",
"'	c #4A4949",
")	c #6A6A6A",
"!	c #5B5B5B",
"~	c #A8A8A8",
"{	c #5A5A5A",
"]	c #636363",
"^	c #5D5D5D",
"/	c #3D3D3D",
"(	c #A0A0A0",
"_	c #5C5B5B",
":	c #4D4C4C",
"<	c #979696",
"[	c #555555",
"}	c #474747",
"|	c #323232",
"1	c #464646",
"2	c #4E4E4E",
"3	c #4B4B4B",
"4	c #414141",
"5	c #494949",
"6	c #404040",
"7	c #474646",
"8	c #3F3E3E",
"9	c #373737",
"0	c #312F2F",
"a	c #838383",
"                   ",
"...................",
"+++++++++++++++++++",
"@@@@@@@@@@@@@@@@@@@",
"###################",
"$$$$$$$$$$$$$$$$$$$",
"%%%%%%%%%%%%%%%%%%%",
"&&&&&&*==-==*&&&&&&",
";;;;;;>,,',,>;;;;;;",
"))))))!~~~~~{))))))",
"]]]]]]^/(((/^]]]]]]",
"______:<<<<<:______",
"[[[[[[}@@|@@1[[[[[[",
"2222223445643222222",
"7777777777777777777",
"8888888888888888888",
"9999999999999999999",
"0000000000000000000",
"aaaaaaaaaaaaaaaaaaa"};
