/* XPM */
static char * maxfcs_xpm[] = {
"19 19 37 1",
" 	c #B8B8B8",
".	c #999999",
"+	c #949494",
"@	c #8E8E8E",
"#	c #888888",
"$	c #838282",
"%	c #7D7D7D",
"&	c #767676",
"*	c #707070",
"=	c #595959",
"-	c #535353",
";	c #525252",
">	c #585858",
",	c #717070",
"'	c #555454",
")	c #FFFFFF",
"!	c #545353",
"~	c #6A6A6A",
"{	c #4B4B4B",
"]	c #4A4A4A",
"^	c #636363",
"/	c #454545",
"(	c #303030",
"_	c #5C5B5B",
":	c #404040",
"<	c #2D2C2C",
"[	c #555555",
"}	c #3F3F3F",
"|	c #4E4E4E",
"1	c #3B3B3B",
"2	c #373737",
"3	c #363636",
"4	c #3A3A3A",
"5	c #474646",
"6	c #3F3E3E",
"7	c #312F2F",
"8	c #838383",
"                   ",
"...................",
"+++++++++++++++++++",
"@@@@@@@@@@@@@@@@@@@",
"###################",
"$$$$$$$$$$$$$$$$$$$",
"%%%%%%%%%%%%%%%%%%%",
"&&&&&&*=-;;>*&&&&&&",
",,,,,,')))))!,,,,,,",
"~~~~~~{)))))]~~~~~~",
"^^^^^^/)(/()/^^^^^^",
"______:)<:<):______",
"[[[[[[:)))))}[[[[[[",
"||||||]12334]||||||",
"5555555555555555555",
"6666666666666666666",
"2222222222222222222",
"7777777777777777777",
"8888888888888888888"};
