/* XPM */
static char * maxpr_xpm[] = {
"19 19 38 1",
" 	c #B8B8B8",
".	c #999999",
"+	c #949494",
"@	c #8E8E8E",
"#	c #888888",
"$	c #838282",
"%	c #7D7D7D",
"&	c #767676",
"*	c #737373",
"=	c #666666",
"-	c #636363",
";	c #717070",
">	c #616060",
",	c #B0AFAF",
"'	c #6A6A6A",
")	c #585858",
"!	c #A8A8A8",
"~	c #575757",
"{	c #515151",
"]	c #A0A0A0",
"^	c #444444",
"/	c #5C5B5B",
"(	c #4A4949",
"_	c #979696",
":	c #3E3D3D",
"<	c #555555",
"[	c #474747",
"}	c #464646",
"|	c #4E4E4E",
"1	c #4B4B4B",
"2	c #414141",
"3	c #3E3E3E",
"4	c #404040",
"5	c #474646",
"6	c #3F3E3E",
"7	c #373737",
"8	c #312F2F",
"9	c #838383",
"                   ",
"...................",
"+++++++++++++++++++",
"@@@@@@@@@@@@@@@@@@@",
"###################",
"$$$$$$$$$$$$$$$$$$$",
"%%%%%%%%%%%%%%%%%%%",
"&&&&&&*=---=*&&&&&&",
";;;;;;>,,,,,>;;;;;;",
"'''''')!!!!!~''''''",
"------{]^{^]{------",
"//////(_:(:_(//////",
"<<<<<<[@@@@@}<<<<<<",
"||||||1233341||||||",
"5555555555555555555",
"6666666666666666666",
"7777777777777777777",
"8888888888888888888",
"9999999999999999999"};
