/* XPM */
static char * menuiconfcs_xpm[] = {
"19 19 38 1",
" 	c #B8B8B8",
".	c #999999",
"+	c #949494",
"@	c #8E8E8E",
"#	c #888888",
"$	c #838282",
"%	c #7D7D7D",
"&	c #767676",
"*	c #717070",
"=	c #6C6B6B",
"-	c #555454",
";	c #504F4F",
">	c #4F4E4E",
",	c #545353",
"'	c #6B6A6A",
")	c #6A6A6A",
"!	c #545454",
"~	c #FFFFFF",
"{	c #636363",
"]	c #595959",
"^	c #353535",
"/	c #2D2D2D",
"(	c #343434",
"_	c #5C5B5B",
":	c #494848",
"<	c #555555",
"[	c #515151",
"}	c #404040",
"|	c #3C3C3C",
"1	c #3B3B3B",
"2	c #3F3F3F",
"3	c #505050",
"4	c #4E4E4E",
"5	c #474646",
"6	c #3F3E3E",
"7	c #373737",
"8	c #312F2F",
"9	c #838383",
"                   ",
"...................",
"+++++++++++++++++++",
"@@@@@@@@@@@@@@@@@@@",
"###################",
"$$$$$$$$$$$$$$$$$$$",
"%%%%%%%%%%%%%%%%%%%",
"&&&&&&&&&&&&&&&&&&&",
"******=-;>>,'******",
"))))))!~~~~~!))))))",
"{{{{{{]^///(]{{{{{{",
"______:~~~~~:______",
"<<<<<<[}|1123<<<<<<",
"4444444444444444444",
"5555555555555555555",
"6666666666666666666",
"7777777777777777777",
"8888888888888888888",
"9999999999999999999"};
