/* XPM */
static char * menuiconpr_xpm[] = {
"19 19 31 1",
" 	c #B8B8B8",
".	c #999999",
"+	c #949494",
"@	c #8E8E8E",
"#	c #888888",
"$	c #838282",
"%	c #7D7D7D",
"&	c #767676",
"*	c #717070",
"=	c #6E6D6D",
"-	c #616060",
";	c #5E5D5D",
">	c #6A6A6A",
",	c #5D5D5D",
"'	c #A8A8A8",
")	c #636363",
"!	c #474747",
"~	c #424242",
"{	c #464646",
"]	c #5C5B5B",
"^	c #504F4F",
"/	c #979696",
"(	c #555555",
"_	c #525252",
":	c #444444",
"<	c #4E4E4E",
"[	c #474646",
"}	c #3F3E3E",
"|	c #373737",
"1	c #312F2F",
"2	c #838383",
"                   ",
"...................",
"+++++++++++++++++++",
"@@@@@@@@@@@@@@@@@@@",
"###################",
"$$$$$$$$$$$$$$$$$$$",
"%%%%%%%%%%%%%%%%%%%",
"&&&&&&&&&&&&&&&&&&&",
"******=-;;;-=******",
">>>>>>,''''',>>>>>>",
")))))),!~~~{,))))))",
"]]]]]]^/////^]]]]]]",
"((((((_!:::{_((((((",
"<<<<<<<<<<<<<<<<<<<",
"[[[[[[[[[[[[[[[[[[[",
"}}}}}}}}}}}}}}}}}}}",
"|||||||||||||||||||",
"1111111111111111111",
"2222222222222222222"};
