/* XPM */
static char * minfcs_xpm[] = {
"19 19 32 1",
" 	c #B8B8B8",
".	c #999999",
"+	c #949494",
"@	c #8E8E8E",
"#	c #888888",
"$	c #838282",
"%	c #7D7D7D",
"&	c #767676",
"*	c #717070",
"=	c #6A6A6A",
"-	c #636363",
";	c #454545",
">	c #3F3F3F",
",	c #3E3E3E",
"'	c #444444",
")	c #616161",
"!	c #464646",
"~	c #FFFFFF",
"{	c #5C5B5B",
"]	c #565555",
"^	c #3C3B3B",
"/	c #363636",
"(	c #363535",
"_	c #3B3B3B",
":	c #545454",
"<	c #555555",
"[	c #4E4E4E",
"}	c #474646",
"|	c #3F3E3E",
"1	c #373737",
"2	c #312F2F",
"3	c #838383",
"                   ",
"...................",
"+++++++++++++++++++",
"@@@@@@@@@@@@@@@@@@@",
"###################",
"$$$$$$$$$$$$$$$$$$$",
"%%%%%%%%%%%%%%%%%%%",
"&&&&&&&&&&&&&&&&&&&",
"*******************",
"======-;>,,')======",
"------!~~~~~!------",
"{{{{{{]^/((_:{{{{{{",
"<<<<<<<<<<<<<<<<<<<",
"[[[[[[[[[[[[[[[[[[[",
"}}}}}}}}}}}}}}}}}}}",
"|||||||||||||||||||",
"1111111111111111111",
"2222222222222222222",
"3333333333333333333"};
