/* XPM */
static char * minpr_xpm[] = {
"19 19 29 1",
" 	c #B8B8B8",
".	c #999999",
"+	c #949494",
"@	c #8E8E8E",
"#	c #888888",
"$	c #838282",
"%	c #7D7D7D",
"&	c #767676",
"*	c #717070",
"=	c #6A6A6A",
"-	c #666666",
";	c #545454",
">	c #515151",
",	c #505050",
"'	c #656565",
")	c #636363",
"!	c #A0A0A0",
"~	c #5C5B5B",
"{	c #585757",
"]	c #474646",
"^	c #444343",
"/	c #434242",
"(	c #575656",
"_	c #555555",
":	c #4E4E4E",
"<	c #3F3E3E",
"[	c #373737",
"}	c #312F2F",
"|	c #838383",
"                   ",
"...................",
"+++++++++++++++++++",
"@@@@@@@@@@@@@@@@@@@",
"###################",
"$$$$$$$$$$$$$$$$$$$",
"%%%%%%%%%%%%%%%%%%%",
"&&&&&&&&&&&&&&&&&&&",
"*******************",
"======-;>,,;'======",
"))))))>!!!!!>))))))",
"~~~~~~{]^//](~~~~~~",
"___________________",
":::::::::::::::::::",
"]]]]]]]]]]]]]]]]]]]",
"<<<<<<<<<<<<<<<<<<<",
"[[[[[[[[[[[[[[[[[[[",
"}}}}}}}}}}}}}}}}}}}",
"|||||||||||||||||||"};
