/* XPM */
static char * shadeufcs_xpm[] = {
"19 19 22 1",
" 	c #B8B8B8",
".	c #717171",
"+	c #6C6C6C",
"@	c #656565",
"#	c #5F5F5F",
"$	c #5A5959",
"%	c #535353",
"&	c #4D4D4D",
"*	c #494848",
"=	c #434343",
"-	c #BCBCBC",
";	c #3D3D3D",
">	c #C2C2C2",
",	c #393838",
"'	c #C6C7C7",
")	c #333333",
"!	c #2E2E2E",
"~	c #2A2929",
"{	c #252424",
"]	c #202020",
"^	c #1C1B1B",
"/	c #838383",
"                   ",
"...................",
"+++++++++++++++++++",
"@@@@@@@@@@@@@@@@@@@",
"###################",
"$$$$$$$$$$$$$$$$$$$",
"%%%%%%%%%%%%%%%%%%%",
"&&&&&&&&&&&&&&&&&&&",
"*******************",
"========---========",
";;;;;;;;>>>;;;;;;;;",
",,,,,,,,''',,,,,,,,",
")))))))))))))))))))",
"!!!!!!!!!!!!!!!!!!!",
"~~~~~~~~~~~~~~~~~~~",
"{{{{{{{{{{{{{{{{{{{",
"]]]]]]]]]]]]]]]]]]]",
"^^^^^^^^^^^^^^^^^^^",
"///////////////////"};
