/* XPM */
static char * stickfcs_xpm[] = {
"19 19 41 1",
" 	c #B8B8B8",
".	c #999999",
"+	c #949494",
"@	c #8E8E8E",
"#	c #888888",
"$	c #838282",
"%	c #7D7D7D",
"&	c #777777",
"*	c #5E5E5E",
"=	c #585858",
"-	c #575757",
";	c #5D5D5D",
">	c #767676",
",	c #595959",
"'	c #FFFFFF",
")	c #717070",
"!	c #504F4F",
"~	c #373636",
"{	c #4F4E4E",
"]	c #383737",
"^	c #6A6A6A",
"/	c #4A4A4A",
"(	c #636363",
"_	c #454545",
":	c #5C5B5B",
"<	c #404040",
"[	c #555555",
"}	c #3B3B3B",
"|	c #292929",
"1	c #4E4E4E",
"2	c #3A3A3A",
"3	c #474646",
"4	c #444343",
"5	c #353535",
"6	c #323131",
"7	c #353434",
"8	c #434242",
"9	c #3F3E3E",
"0	c #373737",
"a	c #312F2F",
"b	c #838383",
"                   ",
"...................",
"+++++++++++++++++++",
"@@@@@@@@@@@@@@@@@@@",
"###################",
"$$$$$$$$$$$$$$$$$$$",
"%%%%&*=------;>%%%%",
">>>>,'''''''''=>>>>",
"))))!''~{{{]''{))))",
"^^^^/''/^^^/''/^^^^",
"((((_''_(((_''_((((",
"::::<''<:::<''<::::",
"[[[[}''|}}}|''}[[[[",
"1111}'''''''''21111",
"3333456666666783333",
"9999999999999999999",
"0000000000000000000",
"aaaaaaaaaaaaaaaaaaa",
"bbbbbbbbbbbbbbbbbbb"};
