/* XPM */
static char * stuckfcs_xpm[] = {
"19 19 38 1",
" 	c #B8B8B8",
".	c #999999",
"+	c #949494",
"@	c #8E8E8E",
"#	c #888888",
"$	c #838282",
"%	c #7D7D7D",
"&	c #777777",
"*	c #5E5E5E",
"=	c #585858",
"-	c #575757",
";	c #5D5D5D",
">	c #767676",
",	c #595959",
"'	c #FFFFFF",
")	c #717070",
"!	c #504F4F",
"~	c #4F4E4E",
"{	c #6A6A6A",
"]	c #4A4A4A",
"^	c #636363",
"/	c #454545",
"(	c #5C5B5B",
"_	c #404040",
":	c #555555",
"<	c #3B3B3B",
"[	c #4E4E4E",
"}	c #3A3A3A",
"|	c #474646",
"1	c #444343",
"2	c #353535",
"3	c #323131",
"4	c #353434",
"5	c #434242",
"6	c #3F3E3E",
"7	c #373737",
"8	c #312F2F",
"9	c #838383",
"                   ",
"...................",
"+++++++++++++++++++",
"@@@@@@@@@@@@@@@@@@@",
"###################",
"$$$$$$$$$$$$$$$$$$$",
"%%%%&*=------;>%%%%",
">>>>,'''''''''=>>>>",
"))))!'''~~~'''~))))",
"{{{{]'']'{']'']{{{{",
"^^^^/''/^'^/''/^^^^",
"((((_''_'('_''_((((",
"::::<'''<<<'''<::::",
"[[[[<'''''''''}[[[[",
"||||12333333345||||",
"6666666666666666666",
"7777777777777777777",
"8888888888888888888",
"9999999999999999999"};
