/* XPM */
static char * stuckufcs_xpm[] = {
"19 19 26 1",
" 	c #B8B8B8",
".	c #717171",
"+	c #6C6C6C",
"@	c #656565",
"#	c #5F5F5F",
"$	c #5A5959",
"%	c #535353",
"&	c #4D4D4D",
"*	c #B2B2B2",
"=	c #494848",
"-	c #B6B7B7",
";	c #434343",
">	c #BCBCBC",
",	c #3D3D3D",
"'	c #C2C2C2",
")	c #393838",
"!	c #C6C7C7",
"~	c #333333",
"{	c #CCCCCC",
"]	c #2E2E2E",
"^	c #D1D1D1",
"/	c #2A2929",
"(	c #252424",
"_	c #202020",
":	c #1C1B1B",
"<	c #838383",
"                   ",
"...................",
"+++++++++++++++++++",
"@@@@@@@@@@@@@@@@@@@",
"###################",
"$$$$$$$$$$$$$$$$$$$",
"%%%%%%%%%%%%%%%%%%%",
"&&&&&*********&&&&&",
"=====---===---=====",
";;;;;>>;>;>;>>;;;;;",
",,,,,'',,',,'',,,,,",
")))))!!)!)!)!!)))))",
"~~~~~{{{~~~{{{~~~~~",
"]]]]]^^^^^^^^^]]]]]",
"///////////////////",
"(((((((((((((((((((",
"___________________",
":::::::::::::::::::",
"<<<<<<<<<<<<<<<<<<<"};
