/* XPM */
static char * unshadefcs_xpm[] = {
"19 19 34 1",
" 	c #B8B8B8",
".	c #999999",
"+	c #949494",
"@	c #8E8E8E",
"#	c #888888",
"$	c #838282",
"%	c #7D7D7D",
"&	c #767676",
"*	c #717070",
"=	c #6C6B6B",
"-	c #555454",
";	c #504F4F",
">	c #545353",
",	c #6B6A6A",
"'	c #6A6A6A",
")	c #505050",
"!	c #FFFFFF",
"~	c #4F4F4F",
"{	c #636363",
"]	c #464646",
"^	c #454545",
"/	c #5C5B5B",
"(	c #454444",
"_	c #555555",
":	c #515151",
"<	c #404040",
"[	c #3C3C3C",
"}	c #3F3F3F",
"|	c #4E4E4E",
"1	c #474646",
"2	c #3F3E3E",
"3	c #373737",
"4	c #312F2F",
"5	c #838383",
"                   ",
"...................",
"+++++++++++++++++++",
"@@@@@@@@@@@@@@@@@@@",
"###################",
"$$$$$$$$$$$$$$$$$$$",
"%%%%%%%%%%%%%%%%%%%",
"&&&&&&&&&&&&&&&&&&&",
"*******=-;>,*******",
"''''''')!!!~'''''''",
"{{{{{{{]!!!^{{{{{{{",
"///////^!!!(///////",
"_______:<[})_______",
"|||||||||||||||||||",
"1111111111111111111",
"2222222222222222222",
"3333333333333333333",
"4444444444444444444",
"5555555555555555555"};
