/* XPM */
static char * unshadepr_xpm[] = {
"19 19 33 1",
" 	c #B8B8B8",
".	c #999999",
"+	c #949494",
"@	c #8E8E8E",
"#	c #888888",
"$	c #838282",
"%	c #7D7D7D",
"&	c #767676",
"*	c #717070",
"=	c #6E6D6D",
"-	c #616060",
";	c #5E5D5D",
">	c #6A6A6A",
",	c #5B5B5B",
"'	c #A8A8A8",
")	c #5A5A5A",
"!	c #636363",
"~	c #515151",
"{	c #A0A0A0",
"]	c #5C5B5B",
"^	c #4D4C4C",
"/	c #979696",
"(	c #555555",
"_	c #525252",
":	c #474747",
"<	c #444444",
"[	c #464646",
"}	c #4E4E4E",
"|	c #474646",
"1	c #3F3E3E",
"2	c #373737",
"3	c #312F2F",
"4	c #838383",
"                   ",
"...................",
"+++++++++++++++++++",
"@@@@@@@@@@@@@@@@@@@",
"###################",
"$$$$$$$$$$$$$$$$$$$",
"%%%%%%%%%%%%%%%%%%%",
"&&&&&&&&&&&&&&&&&&&",
"*******=-;-=*******",
">>>>>>>,''')>>>>>>>",
"!!!!!!!~{{{~!!!!!!!",
"]]]]]]]^///^]]]]]]]",
"(((((((_:<[_(((((((",
"}}}}}}}}}}}}}}}}}}}",
"|||||||||||||||||||",
"1111111111111111111",
"2222222222222222222",
"3333333333333333333",
"4444444444444444444"};
