/* XPM */
static char * off_xpm[] = {
"15 15 2 1",
" 	c #1D1D1D",
".	c #7F848F",
"               ",
"               ",
"               ",
"               ",
"               ",
"               ",
"      ....     ",
"      ....     ",
"      ....     ",
"      ....     ",
"               ",
"               ",
"               ",
"               ",
"               "};
