/* XPM */
static char * pressed_xpm[] = {
"15 15 2 1",
" 	c #1D1D1D",
".	c #E7E7E7",
"               ",
"               ",
"               ",
"               ",
"               ",
"     ......    ",
"     ......    ",
"     ......    ",
"     ......    ",
"     ......    ",
"     ......    ",
"               ",
"               ",
"               ",
"               "};
