/* XPM */
static char * stuckufcs_xpm[] = {
"16 16 3 1",
" 	c None",
".	c #040404",
"+	c #A5A5A5",
"................",
"................",
"................",
".......++.......",
".......++.......",
".......++.......",
".......++.......",
".......++.......",
".......++.......",
".......++.......",
".......++.......",
".......++.......",
".......++.......",
"................",
"................",
"................"};
