/* XPM */
static char * stuckfcs_xpm[] = {
"16 16 3 1",
" 	c None",
".	c #040404",
"+	c #A5A5A5",
"................",
"................",
"................",
".......++.......",
".......++.......",
".......++.......",
".......++.......",
".......++.......",
".......++.......",
".......++.......",
".......++.......",
".......++.......",
".......++.......",
"................",
"................",
"................"};
