/* XPM */
static char * bullet_xpm[] = {
"16 16 22 1",
" 	c None",
".	c #F9FEE7",
"+	c #F4FDD1",
"@	c #EFFCBB",
"#	c #E4FA8F",
"$	c #DAF963",
"%	c #D5F84D",
"&	c #F7FDDE",
"*	c #D6F853",
"=	c #DBF96A",
"-	c #E6FB98",
";	c #F1FCC6",
">	c #D2F843",
",	c #F5FDD4",
"'	c #DCF96A",
")	c #D0F73A",
"!	c #F2FDCB",
"~	c #EDFCB5",
"{	c #E8FB9F",
"]	c #DEF972",
"^	c #D3F846",
"/	c #CEF730",
"                ",
"                ",
"                ",
"                ",
"                ",
"                ",
"                ",
"        .+@#$%  ",
"        &*=-;>  ",
"        ,*'-;)  ",
"        !~{]^/  ",
"                ",
"                ",
"                ",
"                ",
"                "};
