/* XPM */
static char * menuiconpr_xpm[] = {
"21 21 25 1",
" 	c #737173",
".	c #545254",
"+	c #555355",
"@	c #575557",
"#	c #585658",
"$	c #595759",
"%	c #5D5B5D",
"&	c #E7E7E7",
"*	c #656365",
"=	c #5E5C5E",
"-	c #5F5D5F",
";	c #666466",
">	c #848284",
",	c #8B8A8B",
"'	c #8C8A8C",
")	c #605E60",
"!	c #626062",
"~	c #696769",
"{	c #6A686A",
"]	c #6B696B",
"^	c #686668",
"/	c #615F61",
"(	c #676567",
"_	c #858385",
":	c #8C8B8C",
"                     ",
".....................",
"+++++++++++++++++++++",
"@@@@@@@@@@@@@@@@@@@@@",
"#####################",
"#####################",
"#####################",
"$$$$$$$$$$$$$$$$$$$$$",
"%%%%%%%&&&&&&&*=%%%%%",
"-------;>,''''>;-----",
")))))))!~{]]]]^/)))))",
")))))))&&&&&&&~/)))))",
")))))))(_'::::_()))))",
")))))))!~{]]]]^/)))))",
")))))))))))))))))))))",
")))))))))))))))))))))",
")))))))))))))))))))))",
")))))))))))))))))))))",
")))))))))))))))))))))",
"*********************",
")))))))))))))))))))))"};
