/* XPM */
static char * menuiconufcs_xpm[] = {
"21 21 23 1",
" 	c #5A585A",
".	c #3B393B",
"+	c #3D3A3D",
"@	c #3E3D3E",
"#	c #3F3D3F",
"$	c #403E40",
"%	c #444244",
"&	c #E7E7E7",
"*	c #4E4C4E",
"=	c #464446",
"-	c #4F4D4F",
";	c #727072",
">	c #7A797A",
",	c #7B7A7B",
"'	c #474547",
")	c #494749",
"!	c #514F51",
"~	c #535153",
"{	c #545254",
"]	c #504E50",
"^	c #727172",
"/	c #7C7A7C",
"(	c #4C4A4C",
"                     ",
".....................",
"+++++++++++++++++++++",
"@@@@@@@@@@@@@@@@@@@@@",
"#####################",
"#####################",
"#####################",
"$$$$$$$$$$$$$$$$$$$$$",
"%%%%%%%&&&&&&&*=%%%%%",
"=======-;>,,,,;-=====",
"''''''')!~{{{{!)'''''",
"'''''''&&&&&&&!)'''''",
"''''''']^,////^]'''''",
"''''''')!~{{{{!)'''''",
"'''''''''''''''''''''",
"'''''''''''''''''''''",
"'''''''''''''''''''''",
"'''''''''''''''''''''",
"'''''''''''''''''''''",
"(((((((((((((((((((((",
"'''''''''''''''''''''"};
