/* XPM */
static char * minfcs_xpm[] = {
"21 21 34 1",
" 	c #737173",
".	c #545254",
"+	c #555355",
"@	c #575557",
"#	c #585658",
"$	c #595759",
"%	c #5D5B5D",
"&	c #C3F600",
"*	c #535253",
"=	c #5B5A5B",
"-	c #5F5D5F",
";	c #2D3409",
">	c #293200",
",	c #293300",
"'	c #273300",
")	c #253300",
"!	c #223200",
"~	c #605E60",
"{	c #283200",
"]	c #4B4A4B",
"^	c #545354",
"/	c #1C3000",
"(	c #193100",
"_	c #153100",
":	c #0E2F00",
"<	c #565456",
"[	c #193200",
"}	c #163000",
"|	c #123100",
"1	c #103000",
"2	c #0D2F00",
"3	c #0A3000",
"4	c #5E5C5E",
"5	c #656365",
"                     ",
".....................",
"+++++++++++++++++++++",
"@@@@@@@@@@@@@@@@@@@@@",
"#####################",
"#####################",
"#####################",
"$$$$$$$$$$$$$$$$$$$$$",
"%%%%%%%&&&&&&&*=%%%%%",
"-------&;>,')&!+-----",
"~~~~~~~&{]^^^&/^~~~~~",
"~~~~~~~&)^~~~&(^~~~~~",
"~~~~~~~&!^~~~&_^~~~~~",
"~~~~~~~&&&&&&&:^~~~~~",
"~~~~~~~<[}_|123<~~~~~",
"~~~~~~~-<+^^^^<4~~~~~",
"~~~~~~~~~~~~~~~~~~~~~",
"~~~~~~~~~~~~~~~~~~~~~",
"~~~~~~~~~~~~~~~~~~~~~",
"555555555555555555555",
"~~~~~~~~~~~~~~~~~~~~~"};
