/* XPM */
static char * minpr_xpm[] = {
"21 21 28 1",
" 	c #737173",
".	c #545254",
"+	c #555355",
"@	c #575557",
"#	c #585658",
"$	c #595759",
"%	c #5D5B5D",
"&	c #C3F600",
"*	c #535253",
"=	c #5B5A5B",
"-	c #5F5D5F",
";	c #605E60",
">	c #FFFFFF",
",	c #FBFEEE",
"'	c #F2FDC9",
")	c #E9FBA4",
"!	c #545354",
"~	c #FAFEED",
"{	c #F2FDC8",
"]	c #E9FBA3",
"^	c #E0FA7E",
"/	c #F2FDC7",
"(	c #E9FBA2",
"_	c #E0FA7D",
":	c #D7F958",
"<	c #565456",
"[	c #5E5C5E",
"}	c #656365",
"                     ",
".....................",
"+++++++++++++++++++++",
"@@@@@@@@@@@@@@@@@@@@@",
"#####################",
"#####################",
"#####################",
"$$$$$$$$$$$$$$$$$$$$$",
"%%%%%%%&&&&&&&*=%%%%%",
"-------&&&&&&&&+-----",
";;;;;;;&&>,')&&!;;;;;",
";;;;;;;&&~{]^&&!;;;;;",
";;;;;;;&&/(_:&&!;;;;;",
";;;;;;;&&&&&&&&!;;;;;",
";;;;;;;<&&&&&&&<;;;;;",
";;;;;;;-<+!!!!<[;;;;;",
";;;;;;;;;;;;;;;;;;;;;",
";;;;;;;;;;;;;;;;;;;;;",
";;;;;;;;;;;;;;;;;;;;;",
"}}}}}}}}}}}}}}}}}}}}}",
";;;;;;;;;;;;;;;;;;;;;"};
