/* XPM */
static char * shadeufcs_xpm[] = {
"21 21 26 1",
" 	c #5A585A",
".	c #3B393B",
"+	c #3D3A3D",
"@	c #3E3D3E",
"#	c #3F3D3F",
"$	c #403E40",
"%	c #444244",
"&	c #464446",
"*	c #474547",
"=	c #E0DFE0",
"-	c #E2E2E2",
";	c #E6E6E6",
">	c #4F4D4F",
",	c #494749",
"'	c #6D6C6D",
")	c #EBEBEB",
"!	c #706E70",
"~	c #EEEEEE",
"{	c #747274",
"]	c #514F51",
"^	c #504E50",
"/	c #6F6E6F",
"(	c #737273",
"_	c #717071",
":	c #484648",
"<	c #4C4A4C",
"                     ",
".....................",
"+++++++++++++++++++++",
"@@@@@@@@@@@@@@@@@@@@@",
"#####################",
"#####################",
"#####################",
"$$$$$$$$$$$$$$$$$$$$$",
"%%%%%%%%%%%%%%%%%%%%%",
"&&&&&&&&&&&&&&&&&&&&&",
"*********=-;>,*******",
"*********-')!>*******",
"*********;)~{]*******",
"*********^/(_^*******",
"*********:^]^,*******",
"*********************",
"*********************",
"*********************",
"*********************",
"<<<<<<<<<<<<<<<<<<<<<",
"*********************"};
