/* XPM */
static char * stickufcs_xpm[] = {
"21 21 20 1",
" 	c #5A585A",
".	c #3B393B",
"+	c #3D3A3D",
"@	c #3E3D3E",
"#	c #3F3D3F",
"$	c #403E40",
"%	c #444244",
"&	c #FFFFFF",
"*	c #434143",
"=	c #464446",
"-	c #2E2E2E",
";	c #2E2D2E",
">	c #403F40",
",	c #474547",
"'	c #3F3E3F",
")	c #424042",
"!	c #2F2E2F",
"~	c #414041",
"{	c #413F41",
"]	c #4C4A4C",
"                     ",
".....................",
"+++++++++++++++++++++",
"@@@@@@@@@@@@@@@@@@@@@",
"#####################",
"#####################",
"#####################",
"$$$$$$$$$$$$$$$$$$$$$",
"%%%%%%%&&&&&&&#*%%%%%",
"=======&-;---&->=====",
",,,,,,,&;.'''&;',,,,,",
",,,,,,,&-',,,&-',,,,,",
",,,,,,,&-',,,&-',,,,,",
",,,,,,,&&&&&&&;',,,,,",
",,,,,,,)!;---;-~,,,,,",
",,,,,,,=){''''~=,,,,,",
",,,,,,,,,,,,,,,,,,,,,",
",,,,,,,,,,,,,,,,,,,,,",
",,,,,,,,,,,,,,,,,,,,,",
"]]]]]]]]]]]]]]]]]]]]]",
",,,,,,,,,,,,,,,,,,,,,"};
