/* XPM */
static char * stuckufcs_xpm[] = {
"21 21 29 1",
" 	c #5A585A",
".	c #3B393B",
"+	c #3D3A3D",
"@	c #3E3D3E",
"#	c #3F3D3F",
"$	c #403E40",
"%	c #444244",
"&	c #C3F600",
"*	c #434143",
"=	c #464446",
"-	c #403F40",
";	c #474547",
">	c #FFFFFF",
",	c #FBFEEE",
"'	c #F2FDC9",
")	c #E9FBA4",
"!	c #3F3E3F",
"~	c #FAFEED",
"{	c #F2FDC8",
"]	c #E9FBA3",
"^	c #E0FA7E",
"/	c #F2FDC7",
"(	c #E9FBA2",
"_	c #E0FA7D",
":	c #D7F958",
"<	c #424042",
"[	c #414041",
"}	c #413F41",
"|	c #4C4A4C",
"                     ",
".....................",
"+++++++++++++++++++++",
"@@@@@@@@@@@@@@@@@@@@@",
"#####################",
"#####################",
"#####################",
"$$$$$$$$$$$$$$$$$$$$$",
"%%%%%%%&&&&&&&#*%%%%%",
"=======&&&&&&&&-=====",
";;;;;;;&&>,')&&!;;;;;",
";;;;;;;&&~{]^&&!;;;;;",
";;;;;;;&&/(_:&&!;;;;;",
";;;;;;;&&&&&&&&!;;;;;",
";;;;;;;<&&&&&&&[;;;;;",
";;;;;;;=<}!!!![=;;;;;",
";;;;;;;;;;;;;;;;;;;;;",
";;;;;;;;;;;;;;;;;;;;;",
";;;;;;;;;;;;;;;;;;;;;",
"|||||||||||||||||||||",
";;;;;;;;;;;;;;;;;;;;;"};
